; NON-PLATED HOLES START AT T1
; THROUGH (PLATED) HOLES START AT T100
M48
INCH
T1C0.118110
T100C0.038000
T101C0.032000
T102C0.040278
T103C0.040000
%
T1
X001223Y025447
X027223Y025447
X001223Y001447
X027223Y001447
T100
X002223Y017447
X002223Y019447
X002223Y018447
X002223Y021447
X002223Y023447
X002223Y022447
X002223Y020447
T101
X002223Y010659
X002223Y009084
X002223Y009872
X002223Y011447
T102
X022883Y022023
X023824Y024447
X018223Y005447
X007223Y024447
X006236Y015481
X011223Y005447
X021823Y024447
X023922Y023015
X006236Y014489
X006223Y024447
X020223Y005447
X007223Y005447
X016823Y024447
X022823Y024447
X009223Y024447
X005236Y016473
X008223Y005447
X006236Y016473
X023922Y022023
X020823Y024447
X013223Y024447
X011223Y024447
X017823Y024447
X015223Y005447
X024962Y023015
X008223Y024447
X018823Y024447
X024962Y022023
X014824Y024447
X012223Y024447
X017223Y005447
X010223Y024447
X013223Y005447
X014224Y005447
X019823Y024447
X015823Y024447
X010223Y005447
X005236Y014489
X009223Y005447
X016223Y005447
X006223Y005447
X022883Y023015
X019223Y005447
X005236Y015481
T103
X009223Y001447
X010223Y001347
X008223Y001347
X007223Y001447
X012223Y001347
X011223Y001447
T00
M30
