G04 MADE WITH FRITZING*
G04 WWW.FRITZING.ORG*
G04 DOUBLE SIDED*
G04 HOLES PLATED*
G04 CONTOUR ON CENTER OF CONTOUR VECTOR*
%ASAXBY*%
%FSLAX23Y23*%
%MOIN*%
%OFA0B0*%
%SFA1.0B1.0*%
%ADD10C,0.074000*%
%ADD11C,0.059200*%
%ADD12C,0.078000*%
%ADD13C,0.065278*%
%ADD14R,0.059200X0.059200*%
%ADD15R,0.078000X0.078000*%
%ADD16C,0.024000*%
%ADD17R,0.001000X0.001000*%
%LNCOPPER0*%
G90*
G70*
G54D10*
X722Y145D03*
X822Y135D03*
X922Y145D03*
X1022Y135D03*
X1122Y145D03*
X1222Y135D03*
G54D11*
X222Y908D03*
X222Y1145D03*
X222Y1066D03*
X222Y987D03*
G54D12*
X222Y2345D03*
X222Y2245D03*
X222Y2145D03*
X222Y2045D03*
X222Y1945D03*
X222Y1845D03*
X222Y1745D03*
G54D13*
X1022Y545D03*
X922Y545D03*
X822Y545D03*
X722Y545D03*
X622Y545D03*
X1482Y2445D03*
X1582Y2445D03*
X1682Y2445D03*
X1782Y2445D03*
X1882Y2445D03*
X1982Y2445D03*
X2082Y2445D03*
X2182Y2445D03*
X2282Y2445D03*
X2382Y2445D03*
X622Y2445D03*
X722Y2445D03*
X822Y2445D03*
X922Y2445D03*
X1022Y2445D03*
X1122Y2445D03*
X1222Y2445D03*
X1322Y2445D03*
X1922Y545D03*
X2022Y545D03*
X1822Y545D03*
X1722Y545D03*
X1622Y545D03*
X1522Y545D03*
X1422Y545D03*
X1322Y545D03*
X1122Y545D03*
X524Y1647D03*
X624Y1647D03*
X524Y1548D03*
X624Y1548D03*
X524Y1449D03*
X624Y1449D03*
X2392Y2302D03*
X2392Y2202D03*
X2288Y2302D03*
X2288Y2202D03*
X2496Y2302D03*
X2496Y2202D03*
X1022Y545D03*
X922Y545D03*
X822Y545D03*
X722Y545D03*
X622Y545D03*
X1482Y2445D03*
X1582Y2445D03*
X1682Y2445D03*
X1782Y2445D03*
X1882Y2445D03*
X1982Y2445D03*
X2082Y2445D03*
X2182Y2445D03*
X2282Y2445D03*
X2382Y2445D03*
X622Y2445D03*
X722Y2445D03*
X822Y2445D03*
X922Y2445D03*
X1022Y2445D03*
X1122Y2445D03*
X1222Y2445D03*
X1322Y2445D03*
X1922Y545D03*
X2022Y545D03*
X1822Y545D03*
X1722Y545D03*
X1622Y545D03*
X1522Y545D03*
X1422Y545D03*
X1322Y545D03*
X1122Y545D03*
X524Y1647D03*
X624Y1647D03*
X524Y1548D03*
X624Y1548D03*
X524Y1449D03*
X624Y1449D03*
X2392Y2302D03*
X2392Y2202D03*
X2288Y2302D03*
X2288Y2202D03*
X2496Y2302D03*
X2496Y2202D03*
G54D14*
X222Y908D03*
G54D15*
X222Y2345D03*
G54D16*
X1321Y344D02*
X1622Y344D01*
D02*
X1622Y344D02*
X1622Y525D01*
D02*
X723Y43D02*
X1321Y43D01*
D02*
X1321Y43D02*
X1321Y344D01*
D02*
X722Y125D02*
X723Y43D01*
D02*
X822Y155D02*
X822Y525D01*
D02*
X922Y165D02*
X922Y525D01*
D02*
X1022Y155D02*
X1022Y525D01*
D02*
X1122Y165D02*
X1122Y525D01*
D02*
X323Y1944D02*
X241Y1945D01*
D02*
X710Y2429D02*
X323Y1944D01*
D02*
X323Y2043D02*
X241Y2044D01*
D02*
X610Y2429D02*
X323Y2043D01*
D02*
X2623Y1746D02*
X624Y1746D01*
D02*
X624Y1746D02*
X538Y1662D01*
D02*
X2623Y2344D02*
X2623Y1746D01*
D02*
X2623Y2546D02*
X2623Y2344D01*
D02*
X224Y2546D02*
X2623Y2546D01*
D02*
X223Y2364D02*
X224Y2546D01*
D02*
X323Y1445D02*
X323Y1845D01*
D02*
X323Y1845D02*
X241Y1845D01*
D02*
X504Y1449D02*
X323Y1445D01*
D02*
X624Y645D02*
X242Y896D01*
D02*
X623Y565D02*
X624Y645D01*
D02*
X723Y645D02*
X236Y978D01*
D02*
X722Y565D02*
X723Y645D01*
D02*
X521Y1144D02*
X523Y1429D01*
D02*
X238Y1145D02*
X521Y1144D01*
D02*
X822Y1746D02*
X624Y1746D01*
D02*
X624Y1746D02*
X538Y1662D01*
D02*
X822Y1045D02*
X822Y1746D01*
D02*
X238Y1065D02*
X822Y1045D01*
G54D17*
X687Y182D02*
X759Y182D01*
X686Y181D02*
X759Y181D01*
X686Y180D02*
X759Y180D01*
X686Y179D02*
X759Y179D01*
X686Y178D02*
X759Y178D01*
X686Y177D02*
X759Y177D01*
X686Y176D02*
X759Y176D01*
X686Y175D02*
X759Y175D01*
X686Y174D02*
X759Y174D01*
X686Y173D02*
X759Y173D01*
X686Y172D02*
X759Y172D01*
X686Y171D02*
X759Y171D01*
X686Y170D02*
X759Y170D01*
X686Y169D02*
X759Y169D01*
X686Y168D02*
X759Y168D01*
X686Y167D02*
X759Y167D01*
X686Y166D02*
X759Y166D01*
X686Y165D02*
X721Y165D01*
X725Y165D02*
X759Y165D01*
X686Y164D02*
X716Y164D01*
X730Y164D02*
X759Y164D01*
X686Y163D02*
X713Y163D01*
X732Y163D02*
X759Y163D01*
X686Y162D02*
X712Y162D01*
X734Y162D02*
X759Y162D01*
X686Y161D02*
X710Y161D01*
X735Y161D02*
X759Y161D01*
X686Y160D02*
X709Y160D01*
X737Y160D02*
X759Y160D01*
X686Y159D02*
X708Y159D01*
X738Y159D02*
X759Y159D01*
X686Y158D02*
X707Y158D01*
X738Y158D02*
X759Y158D01*
X686Y157D02*
X706Y157D01*
X739Y157D02*
X759Y157D01*
X686Y156D02*
X706Y156D01*
X740Y156D02*
X759Y156D01*
X686Y155D02*
X705Y155D01*
X741Y155D02*
X759Y155D01*
X686Y154D02*
X704Y154D01*
X741Y154D02*
X759Y154D01*
X686Y153D02*
X704Y153D01*
X742Y153D02*
X759Y153D01*
X686Y152D02*
X704Y152D01*
X742Y152D02*
X759Y152D01*
X686Y151D02*
X703Y151D01*
X742Y151D02*
X759Y151D01*
X686Y150D02*
X703Y150D01*
X743Y150D02*
X759Y150D01*
X686Y149D02*
X703Y149D01*
X743Y149D02*
X759Y149D01*
X686Y148D02*
X703Y148D01*
X743Y148D02*
X759Y148D01*
X686Y147D02*
X702Y147D01*
X743Y147D02*
X759Y147D01*
X686Y146D02*
X702Y146D01*
X743Y146D02*
X759Y146D01*
X686Y145D02*
X702Y145D01*
X743Y145D02*
X759Y145D01*
X686Y144D02*
X702Y144D01*
X743Y144D02*
X759Y144D01*
X686Y143D02*
X703Y143D01*
X743Y143D02*
X759Y143D01*
X686Y142D02*
X703Y142D01*
X743Y142D02*
X759Y142D01*
X686Y141D02*
X703Y141D01*
X743Y141D02*
X759Y141D01*
X686Y140D02*
X703Y140D01*
X743Y140D02*
X759Y140D01*
X686Y139D02*
X703Y139D01*
X742Y139D02*
X759Y139D01*
X686Y138D02*
X704Y138D01*
X742Y138D02*
X759Y138D01*
X686Y137D02*
X704Y137D01*
X742Y137D02*
X759Y137D01*
X686Y136D02*
X705Y136D01*
X741Y136D02*
X759Y136D01*
X686Y135D02*
X705Y135D01*
X740Y135D02*
X759Y135D01*
X686Y134D02*
X706Y134D01*
X740Y134D02*
X759Y134D01*
X686Y133D02*
X707Y133D01*
X739Y133D02*
X759Y133D01*
X686Y132D02*
X707Y132D01*
X738Y132D02*
X759Y132D01*
X686Y131D02*
X708Y131D01*
X737Y131D02*
X759Y131D01*
X686Y130D02*
X709Y130D01*
X736Y130D02*
X759Y130D01*
X686Y129D02*
X711Y129D01*
X735Y129D02*
X759Y129D01*
X686Y128D02*
X712Y128D01*
X733Y128D02*
X759Y128D01*
X686Y127D02*
X714Y127D01*
X732Y127D02*
X759Y127D01*
X686Y126D02*
X717Y126D01*
X729Y126D02*
X759Y126D01*
X686Y125D02*
X759Y125D01*
X686Y124D02*
X759Y124D01*
X686Y123D02*
X759Y123D01*
X686Y122D02*
X759Y122D01*
X686Y121D02*
X759Y121D01*
X686Y120D02*
X759Y120D01*
X686Y119D02*
X759Y119D01*
X686Y118D02*
X759Y118D01*
X686Y117D02*
X759Y117D01*
X686Y116D02*
X759Y116D01*
X686Y115D02*
X759Y115D01*
X686Y114D02*
X759Y114D01*
X686Y113D02*
X759Y113D01*
X686Y112D02*
X759Y112D01*
X686Y111D02*
X759Y111D01*
X686Y110D02*
X759Y110D01*
X686Y109D02*
X759Y109D01*
D02*
G04 End of Copper0*
M02*