G04 MADE WITH FRITZING*
G04 WWW.FRITZING.ORG*
G04 DOUBLE SIDED*
G04 HOLES PLATED*
G04 CONTOUR ON CENTER OF CONTOUR VECTOR*
%ASAXBY*%
%FSLAX23Y23*%
%MOIN*%
%OFA0B0*%
%SFA1.0B1.0*%
%ADD10C,0.074000*%
%ADD11C,0.059200*%
%ADD12C,0.078000*%
%ADD13C,0.065278*%
%ADD14R,0.059200X0.059200*%
%ADD15R,0.078000X0.078000*%
%ADD16R,0.001000X0.001000*%
%LNCOPPER1*%
G90*
G70*
G54D10*
X722Y145D03*
X822Y135D03*
X922Y145D03*
X1022Y135D03*
X1122Y145D03*
X1222Y135D03*
X722Y145D03*
X822Y135D03*
X922Y145D03*
X1022Y135D03*
X1122Y145D03*
X1222Y135D03*
G54D11*
X222Y908D03*
X222Y1145D03*
X222Y1066D03*
X222Y987D03*
G54D12*
X222Y2345D03*
X222Y2245D03*
X222Y2145D03*
X222Y2045D03*
X222Y1945D03*
X222Y1845D03*
X222Y1745D03*
G54D13*
X1022Y545D03*
X922Y545D03*
X822Y545D03*
X722Y545D03*
X622Y545D03*
X1482Y2445D03*
X1582Y2445D03*
X1682Y2445D03*
X1782Y2445D03*
X1882Y2445D03*
X1982Y2445D03*
X2082Y2445D03*
X2182Y2445D03*
X2282Y2445D03*
X2382Y2445D03*
X622Y2445D03*
X722Y2445D03*
X822Y2445D03*
X922Y2445D03*
X1022Y2445D03*
X1122Y2445D03*
X1222Y2445D03*
X1322Y2445D03*
X1922Y545D03*
X2022Y545D03*
X1822Y545D03*
X1722Y545D03*
X1622Y545D03*
X1522Y545D03*
X1422Y545D03*
X1322Y545D03*
X1122Y545D03*
X524Y1647D03*
X624Y1647D03*
X524Y1548D03*
X624Y1548D03*
X524Y1449D03*
X624Y1449D03*
X2392Y2302D03*
X2392Y2202D03*
X2288Y2302D03*
X2288Y2202D03*
X2496Y2302D03*
X2496Y2202D03*
X1022Y545D03*
X922Y545D03*
X822Y545D03*
X722Y545D03*
X622Y545D03*
X1482Y2445D03*
X1582Y2445D03*
X1682Y2445D03*
X1782Y2445D03*
X1882Y2445D03*
X1982Y2445D03*
X2082Y2445D03*
X2182Y2445D03*
X2282Y2445D03*
X2382Y2445D03*
X622Y2445D03*
X722Y2445D03*
X822Y2445D03*
X922Y2445D03*
X1022Y2445D03*
X1122Y2445D03*
X1222Y2445D03*
X1322Y2445D03*
X1922Y545D03*
X2022Y545D03*
X1822Y545D03*
X1722Y545D03*
X1622Y545D03*
X1522Y545D03*
X1422Y545D03*
X1322Y545D03*
X1122Y545D03*
X524Y1647D03*
X624Y1647D03*
X524Y1548D03*
X624Y1548D03*
X524Y1449D03*
X624Y1449D03*
X2392Y2302D03*
X2392Y2202D03*
X2288Y2302D03*
X2288Y2202D03*
X2496Y2302D03*
X2496Y2202D03*
G54D14*
X222Y908D03*
G54D15*
X222Y2345D03*
G54D16*
X687Y182D02*
X759Y182D01*
X686Y181D02*
X759Y181D01*
X686Y180D02*
X759Y180D01*
X686Y179D02*
X759Y179D01*
X686Y178D02*
X759Y178D01*
X686Y177D02*
X759Y177D01*
X686Y176D02*
X759Y176D01*
X686Y175D02*
X759Y175D01*
X686Y174D02*
X759Y174D01*
X686Y173D02*
X759Y173D01*
X686Y172D02*
X759Y172D01*
X686Y171D02*
X759Y171D01*
X686Y170D02*
X759Y170D01*
X686Y169D02*
X759Y169D01*
X686Y168D02*
X759Y168D01*
X686Y167D02*
X759Y167D01*
X686Y166D02*
X759Y166D01*
X686Y165D02*
X721Y165D01*
X725Y165D02*
X759Y165D01*
X686Y164D02*
X716Y164D01*
X730Y164D02*
X759Y164D01*
X686Y163D02*
X713Y163D01*
X732Y163D02*
X759Y163D01*
X686Y162D02*
X712Y162D01*
X734Y162D02*
X759Y162D01*
X686Y161D02*
X710Y161D01*
X735Y161D02*
X759Y161D01*
X686Y160D02*
X709Y160D01*
X737Y160D02*
X759Y160D01*
X686Y159D02*
X708Y159D01*
X738Y159D02*
X759Y159D01*
X686Y158D02*
X707Y158D01*
X738Y158D02*
X759Y158D01*
X686Y157D02*
X706Y157D01*
X739Y157D02*
X759Y157D01*
X686Y156D02*
X706Y156D01*
X740Y156D02*
X759Y156D01*
X686Y155D02*
X705Y155D01*
X741Y155D02*
X759Y155D01*
X686Y154D02*
X704Y154D01*
X741Y154D02*
X759Y154D01*
X686Y153D02*
X704Y153D01*
X742Y153D02*
X759Y153D01*
X686Y152D02*
X704Y152D01*
X742Y152D02*
X759Y152D01*
X686Y151D02*
X703Y151D01*
X742Y151D02*
X759Y151D01*
X686Y150D02*
X703Y150D01*
X743Y150D02*
X759Y150D01*
X686Y149D02*
X703Y149D01*
X743Y149D02*
X759Y149D01*
X686Y148D02*
X703Y148D01*
X743Y148D02*
X759Y148D01*
X686Y147D02*
X702Y147D01*
X743Y147D02*
X759Y147D01*
X686Y146D02*
X702Y146D01*
X743Y146D02*
X759Y146D01*
X686Y145D02*
X702Y145D01*
X743Y145D02*
X759Y145D01*
X686Y144D02*
X702Y144D01*
X743Y144D02*
X759Y144D01*
X686Y143D02*
X703Y143D01*
X743Y143D02*
X759Y143D01*
X686Y142D02*
X703Y142D01*
X743Y142D02*
X759Y142D01*
X686Y141D02*
X703Y141D01*
X743Y141D02*
X759Y141D01*
X686Y140D02*
X703Y140D01*
X743Y140D02*
X759Y140D01*
X686Y139D02*
X703Y139D01*
X742Y139D02*
X759Y139D01*
X686Y138D02*
X704Y138D01*
X742Y138D02*
X759Y138D01*
X686Y137D02*
X704Y137D01*
X742Y137D02*
X759Y137D01*
X686Y136D02*
X705Y136D01*
X741Y136D02*
X759Y136D01*
X686Y135D02*
X705Y135D01*
X740Y135D02*
X759Y135D01*
X686Y134D02*
X706Y134D01*
X740Y134D02*
X759Y134D01*
X686Y133D02*
X707Y133D01*
X739Y133D02*
X759Y133D01*
X686Y132D02*
X707Y132D01*
X738Y132D02*
X759Y132D01*
X686Y131D02*
X708Y131D01*
X737Y131D02*
X759Y131D01*
X686Y130D02*
X709Y130D01*
X736Y130D02*
X759Y130D01*
X686Y129D02*
X711Y129D01*
X735Y129D02*
X759Y129D01*
X686Y128D02*
X712Y128D01*
X733Y128D02*
X759Y128D01*
X686Y127D02*
X714Y127D01*
X732Y127D02*
X759Y127D01*
X686Y126D02*
X717Y126D01*
X729Y126D02*
X759Y126D01*
X686Y125D02*
X759Y125D01*
X686Y124D02*
X759Y124D01*
X686Y123D02*
X759Y123D01*
X686Y122D02*
X759Y122D01*
X686Y121D02*
X759Y121D01*
X686Y120D02*
X759Y120D01*
X686Y119D02*
X759Y119D01*
X686Y118D02*
X759Y118D01*
X686Y117D02*
X759Y117D01*
X686Y116D02*
X759Y116D01*
X686Y115D02*
X759Y115D01*
X686Y114D02*
X759Y114D01*
X686Y113D02*
X759Y113D01*
X686Y112D02*
X759Y112D01*
X686Y111D02*
X759Y111D01*
X686Y110D02*
X759Y110D01*
X686Y109D02*
X759Y109D01*
X1493Y93D02*
X1515Y93D01*
X1912Y93D02*
X1912Y93D01*
X1986Y93D02*
X1996Y93D01*
X2035Y93D02*
X2045Y93D01*
X2127Y93D02*
X2149Y93D01*
X2474Y93D02*
X2494Y93D01*
X2520Y93D02*
X2535Y93D01*
X1492Y92D02*
X1519Y92D01*
X1640Y92D02*
X1643Y92D01*
X1883Y92D02*
X1887Y92D01*
X1910Y92D02*
X1914Y92D01*
X1984Y92D02*
X1998Y92D01*
X2033Y92D02*
X2047Y92D01*
X2126Y92D02*
X2153Y92D01*
X2471Y92D02*
X2497Y92D01*
X2518Y92D02*
X2536Y92D01*
X1492Y91D02*
X1521Y91D01*
X1639Y91D02*
X1644Y91D01*
X1883Y91D02*
X1888Y91D01*
X1910Y91D02*
X1915Y91D01*
X1984Y91D02*
X1999Y91D01*
X2032Y91D02*
X2048Y91D01*
X2126Y91D02*
X2155Y91D01*
X2470Y91D02*
X2498Y91D01*
X2517Y91D02*
X2536Y91D01*
X1492Y90D02*
X1522Y90D01*
X1639Y90D02*
X1644Y90D01*
X1883Y90D02*
X1888Y90D01*
X1909Y90D02*
X1915Y90D01*
X1983Y90D02*
X1999Y90D01*
X2032Y90D02*
X2048Y90D01*
X2126Y90D02*
X2156Y90D01*
X2282Y90D02*
X2283Y90D01*
X2469Y90D02*
X2499Y90D01*
X2517Y90D02*
X2536Y90D01*
X1492Y89D02*
X1523Y89D01*
X1639Y89D02*
X1644Y89D01*
X1882Y89D02*
X1888Y89D01*
X1909Y89D02*
X1915Y89D01*
X1983Y89D02*
X1999Y89D01*
X2032Y89D02*
X2048Y89D01*
X2126Y89D02*
X2157Y89D01*
X2280Y89D02*
X2284Y89D01*
X2468Y89D02*
X2500Y89D01*
X2517Y89D02*
X2536Y89D01*
X1492Y88D02*
X1523Y88D01*
X1639Y88D02*
X1644Y88D01*
X1882Y88D02*
X1888Y88D01*
X1909Y88D02*
X1915Y88D01*
X1984Y88D02*
X1999Y88D01*
X2033Y88D02*
X2048Y88D01*
X2126Y88D02*
X2158Y88D01*
X2280Y88D02*
X2285Y88D01*
X2468Y88D02*
X2500Y88D01*
X2517Y88D02*
X2536Y88D01*
X1492Y87D02*
X1524Y87D01*
X1639Y87D02*
X1644Y87D01*
X1882Y87D02*
X1888Y87D01*
X1909Y87D02*
X1915Y87D01*
X1985Y87D02*
X1999Y87D01*
X2033Y87D02*
X2048Y87D01*
X2126Y87D02*
X2158Y87D01*
X2279Y87D02*
X2285Y87D01*
X2468Y87D02*
X2500Y87D01*
X2518Y87D02*
X2536Y87D01*
X1492Y86D02*
X1498Y86D01*
X1517Y86D02*
X1524Y86D01*
X1639Y86D02*
X1644Y86D01*
X1882Y86D02*
X1888Y86D01*
X1909Y86D02*
X1915Y86D01*
X1993Y86D02*
X1999Y86D01*
X2042Y86D02*
X2048Y86D01*
X2126Y86D02*
X2132Y86D01*
X2151Y86D02*
X2158Y86D01*
X2279Y86D02*
X2285Y86D01*
X2468Y86D02*
X2474Y86D01*
X2494Y86D02*
X2500Y86D01*
X2530Y86D02*
X2536Y86D01*
X1492Y85D02*
X1498Y85D01*
X1518Y85D02*
X1525Y85D01*
X1639Y85D02*
X1644Y85D01*
X1882Y85D02*
X1888Y85D01*
X1909Y85D02*
X1915Y85D01*
X1993Y85D02*
X1999Y85D01*
X2042Y85D02*
X2048Y85D01*
X2126Y85D02*
X2132Y85D01*
X2152Y85D02*
X2159Y85D01*
X2279Y85D02*
X2285Y85D01*
X2468Y85D02*
X2474Y85D01*
X2495Y85D02*
X2500Y85D01*
X2530Y85D02*
X2536Y85D01*
X1492Y84D02*
X1498Y84D01*
X1519Y84D02*
X1525Y84D01*
X1639Y84D02*
X1644Y84D01*
X1882Y84D02*
X1888Y84D01*
X1909Y84D02*
X1915Y84D01*
X1993Y84D02*
X1999Y84D01*
X2042Y84D02*
X2048Y84D01*
X2126Y84D02*
X2132Y84D01*
X2153Y84D02*
X2159Y84D01*
X2279Y84D02*
X2285Y84D01*
X2468Y84D02*
X2474Y84D01*
X2495Y84D02*
X2500Y84D01*
X2530Y84D02*
X2536Y84D01*
X1492Y83D02*
X1498Y83D01*
X1519Y83D02*
X1525Y83D01*
X1639Y83D02*
X1644Y83D01*
X1882Y83D02*
X1888Y83D01*
X1909Y83D02*
X1915Y83D01*
X1993Y83D02*
X1999Y83D01*
X2042Y83D02*
X2048Y83D01*
X2126Y83D02*
X2132Y83D01*
X2153Y83D02*
X2159Y83D01*
X2279Y83D02*
X2285Y83D01*
X2468Y83D02*
X2474Y83D01*
X2495Y83D02*
X2500Y83D01*
X2530Y83D02*
X2536Y83D01*
X1492Y82D02*
X1498Y82D01*
X1519Y82D02*
X1525Y82D01*
X1639Y82D02*
X1644Y82D01*
X1882Y82D02*
X1888Y82D01*
X1909Y82D02*
X1915Y82D01*
X1993Y82D02*
X1999Y82D01*
X2042Y82D02*
X2048Y82D01*
X2126Y82D02*
X2132Y82D01*
X2153Y82D02*
X2159Y82D01*
X2279Y82D02*
X2285Y82D01*
X2468Y82D02*
X2474Y82D01*
X2495Y82D02*
X2500Y82D01*
X2530Y82D02*
X2536Y82D01*
X1492Y81D02*
X1498Y81D01*
X1519Y81D02*
X1525Y81D01*
X1639Y81D02*
X1644Y81D01*
X1882Y81D02*
X1888Y81D01*
X1909Y81D02*
X1915Y81D01*
X1993Y81D02*
X1999Y81D01*
X2042Y81D02*
X2048Y81D01*
X2126Y81D02*
X2132Y81D01*
X2153Y81D02*
X2159Y81D01*
X2279Y81D02*
X2285Y81D01*
X2468Y81D02*
X2474Y81D01*
X2495Y81D02*
X2500Y81D01*
X2530Y81D02*
X2536Y81D01*
X1492Y80D02*
X1498Y80D01*
X1519Y80D02*
X1525Y80D01*
X1639Y80D02*
X1644Y80D01*
X1882Y80D02*
X1888Y80D01*
X1909Y80D02*
X1915Y80D01*
X1993Y80D02*
X1999Y80D01*
X2042Y80D02*
X2048Y80D01*
X2126Y80D02*
X2132Y80D01*
X2153Y80D02*
X2159Y80D01*
X2279Y80D02*
X2285Y80D01*
X2468Y80D02*
X2474Y80D01*
X2495Y80D02*
X2500Y80D01*
X2530Y80D02*
X2536Y80D01*
X1492Y79D02*
X1498Y79D01*
X1519Y79D02*
X1525Y79D01*
X1639Y79D02*
X1644Y79D01*
X1882Y79D02*
X1888Y79D01*
X1909Y79D02*
X1915Y79D01*
X1993Y79D02*
X1999Y79D01*
X2042Y79D02*
X2048Y79D01*
X2126Y79D02*
X2132Y79D01*
X2153Y79D02*
X2159Y79D01*
X2279Y79D02*
X2285Y79D01*
X2468Y79D02*
X2474Y79D01*
X2495Y79D02*
X2500Y79D01*
X2530Y79D02*
X2536Y79D01*
X1492Y78D02*
X1498Y78D01*
X1519Y78D02*
X1525Y78D01*
X1550Y78D02*
X1565Y78D01*
X1602Y78D02*
X1621Y78D01*
X1639Y78D02*
X1644Y78D01*
X1654Y78D02*
X1664Y78D01*
X1695Y78D02*
X1713Y78D01*
X1737Y78D02*
X1741Y78D01*
X1751Y78D02*
X1762Y78D01*
X1794Y78D02*
X1805Y78D01*
X1813Y78D02*
X1816Y78D01*
X1842Y78D02*
X1858Y78D01*
X1882Y78D02*
X1888Y78D01*
X1909Y78D02*
X1915Y78D01*
X1940Y78D02*
X1955Y78D01*
X1993Y78D02*
X1999Y78D01*
X2042Y78D02*
X2048Y78D01*
X2126Y78D02*
X2132Y78D01*
X2153Y78D02*
X2159Y78D01*
X2176Y78D02*
X2180Y78D01*
X2190Y78D02*
X2201Y78D01*
X2233Y78D02*
X2248Y78D01*
X2274Y78D02*
X2300Y78D01*
X2330Y78D02*
X2345Y78D01*
X2420Y78D02*
X2423Y78D01*
X2447Y78D02*
X2450Y78D01*
X2468Y78D02*
X2474Y78D01*
X2495Y78D02*
X2500Y78D01*
X2530Y78D02*
X2536Y78D01*
X1492Y77D02*
X1498Y77D01*
X1518Y77D02*
X1525Y77D01*
X1548Y77D02*
X1567Y77D01*
X1600Y77D02*
X1622Y77D01*
X1639Y77D02*
X1644Y77D01*
X1652Y77D02*
X1666Y77D01*
X1695Y77D02*
X1715Y77D01*
X1737Y77D02*
X1741Y77D01*
X1750Y77D02*
X1764Y77D01*
X1792Y77D02*
X1807Y77D01*
X1812Y77D02*
X1817Y77D01*
X1841Y77D02*
X1859Y77D01*
X1882Y77D02*
X1888Y77D01*
X1909Y77D02*
X1915Y77D01*
X1938Y77D02*
X1957Y77D01*
X1993Y77D02*
X1999Y77D01*
X2042Y77D02*
X2048Y77D01*
X2126Y77D02*
X2132Y77D01*
X2153Y77D02*
X2159Y77D01*
X2176Y77D02*
X2180Y77D01*
X2189Y77D02*
X2203Y77D01*
X2231Y77D02*
X2249Y77D01*
X2273Y77D02*
X2301Y77D01*
X2328Y77D02*
X2347Y77D01*
X2419Y77D02*
X2424Y77D01*
X2446Y77D02*
X2451Y77D01*
X2468Y77D02*
X2474Y77D01*
X2495Y77D02*
X2500Y77D01*
X2530Y77D02*
X2536Y77D01*
X1492Y76D02*
X1498Y76D01*
X1516Y76D02*
X1524Y76D01*
X1547Y76D02*
X1568Y76D01*
X1598Y76D02*
X1622Y76D01*
X1639Y76D02*
X1644Y76D01*
X1650Y76D02*
X1667Y76D01*
X1694Y76D02*
X1716Y76D01*
X1736Y76D02*
X1742Y76D01*
X1748Y76D02*
X1765Y76D01*
X1791Y76D02*
X1809Y76D01*
X1812Y76D02*
X1817Y76D01*
X1839Y76D02*
X1861Y76D01*
X1882Y76D02*
X1888Y76D01*
X1909Y76D02*
X1915Y76D01*
X1937Y76D02*
X1958Y76D01*
X1993Y76D02*
X1999Y76D01*
X2042Y76D02*
X2048Y76D01*
X2126Y76D02*
X2132Y76D01*
X2153Y76D02*
X2159Y76D01*
X2175Y76D02*
X2181Y76D01*
X2187Y76D02*
X2204Y76D01*
X2230Y76D02*
X2251Y76D01*
X2273Y76D02*
X2302Y76D01*
X2327Y76D02*
X2348Y76D01*
X2419Y76D02*
X2425Y76D01*
X2446Y76D02*
X2451Y76D01*
X2468Y76D02*
X2474Y76D01*
X2495Y76D02*
X2500Y76D01*
X2530Y76D02*
X2536Y76D01*
X1492Y75D02*
X1524Y75D01*
X1545Y75D02*
X1569Y75D01*
X1597Y75D02*
X1622Y75D01*
X1639Y75D02*
X1644Y75D01*
X1648Y75D02*
X1668Y75D01*
X1694Y75D02*
X1717Y75D01*
X1736Y75D02*
X1742Y75D01*
X1747Y75D02*
X1766Y75D01*
X1789Y75D02*
X1810Y75D01*
X1812Y75D02*
X1818Y75D01*
X1838Y75D02*
X1862Y75D01*
X1882Y75D02*
X1888Y75D01*
X1897Y75D02*
X1900Y75D01*
X1909Y75D02*
X1915Y75D01*
X1936Y75D02*
X1959Y75D01*
X1993Y75D02*
X1999Y75D01*
X2042Y75D02*
X2048Y75D01*
X2126Y75D02*
X2132Y75D01*
X2153Y75D02*
X2159Y75D01*
X2175Y75D02*
X2181Y75D01*
X2186Y75D02*
X2205Y75D01*
X2228Y75D02*
X2252Y75D01*
X2273Y75D02*
X2302Y75D01*
X2326Y75D02*
X2350Y75D01*
X2419Y75D02*
X2425Y75D01*
X2446Y75D02*
X2452Y75D01*
X2468Y75D02*
X2474Y75D01*
X2495Y75D02*
X2500Y75D01*
X2530Y75D02*
X2536Y75D01*
X1492Y74D02*
X1523Y74D01*
X1544Y74D02*
X1570Y74D01*
X1596Y74D02*
X1622Y74D01*
X1639Y74D02*
X1644Y74D01*
X1647Y74D02*
X1669Y74D01*
X1694Y74D02*
X1718Y74D01*
X1736Y74D02*
X1742Y74D01*
X1746Y74D02*
X1767Y74D01*
X1788Y74D02*
X1818Y74D01*
X1837Y74D02*
X1863Y74D01*
X1882Y74D02*
X1888Y74D01*
X1896Y74D02*
X1901Y74D01*
X1909Y74D02*
X1915Y74D01*
X1935Y74D02*
X1960Y74D01*
X1993Y74D02*
X1999Y74D01*
X2042Y74D02*
X2048Y74D01*
X2126Y74D02*
X2132Y74D01*
X2153Y74D02*
X2159Y74D01*
X2175Y74D02*
X2181Y74D01*
X2185Y74D02*
X2206Y74D01*
X2227Y74D02*
X2253Y74D01*
X2273Y74D02*
X2302Y74D01*
X2325Y74D02*
X2351Y74D01*
X2419Y74D02*
X2425Y74D01*
X2446Y74D02*
X2452Y74D01*
X2468Y74D02*
X2474Y74D01*
X2495Y74D02*
X2500Y74D01*
X2530Y74D02*
X2536Y74D01*
X1492Y73D02*
X1523Y73D01*
X1543Y73D02*
X1571Y73D01*
X1595Y73D02*
X1621Y73D01*
X1639Y73D02*
X1669Y73D01*
X1695Y73D02*
X1718Y73D01*
X1736Y73D02*
X1742Y73D01*
X1745Y73D02*
X1768Y73D01*
X1787Y73D02*
X1818Y73D01*
X1836Y73D02*
X1864Y73D01*
X1882Y73D02*
X1888Y73D01*
X1896Y73D02*
X1902Y73D01*
X1909Y73D02*
X1915Y73D01*
X1934Y73D02*
X1961Y73D01*
X1993Y73D02*
X1999Y73D01*
X2042Y73D02*
X2048Y73D01*
X2126Y73D02*
X2132Y73D01*
X2153Y73D02*
X2159Y73D01*
X2175Y73D02*
X2181Y73D01*
X2184Y73D02*
X2207Y73D01*
X2226Y73D02*
X2254Y73D01*
X2274Y73D02*
X2301Y73D01*
X2324Y73D02*
X2352Y73D01*
X2419Y73D02*
X2425Y73D01*
X2446Y73D02*
X2452Y73D01*
X2468Y73D02*
X2474Y73D01*
X2495Y73D02*
X2500Y73D01*
X2530Y73D02*
X2536Y73D01*
X1492Y72D02*
X1522Y72D01*
X1543Y72D02*
X1572Y72D01*
X1594Y72D02*
X1619Y72D01*
X1639Y72D02*
X1670Y72D01*
X1697Y72D02*
X1718Y72D01*
X1736Y72D02*
X1742Y72D01*
X1744Y72D02*
X1768Y72D01*
X1786Y72D02*
X1818Y72D01*
X1835Y72D02*
X1865Y72D01*
X1882Y72D02*
X1888Y72D01*
X1896Y72D02*
X1902Y72D01*
X1909Y72D02*
X1915Y72D01*
X1933Y72D02*
X1962Y72D01*
X1993Y72D02*
X1999Y72D01*
X2042Y72D02*
X2048Y72D01*
X2126Y72D02*
X2132Y72D01*
X2153Y72D02*
X2159Y72D01*
X2175Y72D02*
X2181Y72D01*
X2183Y72D02*
X2207Y72D01*
X2226Y72D02*
X2255Y72D01*
X2276Y72D02*
X2299Y72D01*
X2323Y72D02*
X2352Y72D01*
X2419Y72D02*
X2425Y72D01*
X2446Y72D02*
X2452Y72D01*
X2468Y72D02*
X2474Y72D01*
X2495Y72D02*
X2500Y72D01*
X2530Y72D02*
X2536Y72D01*
X1492Y71D02*
X1520Y71D01*
X1542Y71D02*
X1550Y71D01*
X1565Y71D02*
X1573Y71D01*
X1593Y71D02*
X1602Y71D01*
X1639Y71D02*
X1654Y71D01*
X1663Y71D02*
X1670Y71D01*
X1712Y71D02*
X1719Y71D01*
X1736Y71D02*
X1752Y71D01*
X1762Y71D02*
X1768Y71D01*
X1786Y71D02*
X1794Y71D01*
X1805Y71D02*
X1818Y71D01*
X1835Y71D02*
X1843Y71D01*
X1857Y71D02*
X1865Y71D01*
X1882Y71D02*
X1888Y71D01*
X1896Y71D02*
X1902Y71D01*
X1909Y71D02*
X1915Y71D01*
X1932Y71D02*
X1940Y71D01*
X1955Y71D02*
X1963Y71D01*
X1993Y71D02*
X1999Y71D01*
X2042Y71D02*
X2048Y71D01*
X2126Y71D02*
X2132Y71D01*
X2153Y71D02*
X2159Y71D01*
X2175Y71D02*
X2191Y71D01*
X2201Y71D02*
X2207Y71D01*
X2225Y71D02*
X2233Y71D01*
X2247Y71D02*
X2255Y71D01*
X2279Y71D02*
X2285Y71D01*
X2323Y71D02*
X2331Y71D01*
X2345Y71D02*
X2353Y71D01*
X2419Y71D02*
X2425Y71D01*
X2446Y71D02*
X2452Y71D01*
X2468Y71D02*
X2474Y71D01*
X2495Y71D02*
X2500Y71D01*
X2530Y71D02*
X2536Y71D01*
X1492Y70D02*
X1519Y70D01*
X1542Y70D02*
X1549Y70D01*
X1566Y70D02*
X1573Y70D01*
X1592Y70D02*
X1601Y70D01*
X1639Y70D02*
X1652Y70D01*
X1664Y70D02*
X1670Y70D01*
X1713Y70D02*
X1719Y70D01*
X1736Y70D02*
X1751Y70D01*
X1763Y70D02*
X1769Y70D01*
X1785Y70D02*
X1793Y70D01*
X1806Y70D02*
X1818Y70D01*
X1834Y70D02*
X1842Y70D01*
X1859Y70D02*
X1866Y70D01*
X1882Y70D02*
X1888Y70D01*
X1896Y70D02*
X1902Y70D01*
X1909Y70D02*
X1915Y70D01*
X1932Y70D02*
X1939Y70D01*
X1956Y70D02*
X1963Y70D01*
X1993Y70D02*
X1999Y70D01*
X2042Y70D02*
X2048Y70D01*
X2126Y70D02*
X2132Y70D01*
X2153Y70D02*
X2159Y70D01*
X2175Y70D02*
X2190Y70D01*
X2202Y70D02*
X2208Y70D01*
X2225Y70D02*
X2232Y70D01*
X2249Y70D02*
X2256Y70D01*
X2279Y70D02*
X2285Y70D01*
X2322Y70D02*
X2329Y70D01*
X2346Y70D02*
X2353Y70D01*
X2419Y70D02*
X2425Y70D01*
X2446Y70D02*
X2452Y70D01*
X2468Y70D02*
X2474Y70D01*
X2495Y70D02*
X2500Y70D01*
X2530Y70D02*
X2536Y70D01*
X1492Y69D02*
X1498Y69D01*
X1503Y69D02*
X1511Y69D01*
X1541Y69D02*
X1548Y69D01*
X1567Y69D02*
X1573Y69D01*
X1591Y69D02*
X1600Y69D01*
X1639Y69D02*
X1651Y69D01*
X1664Y69D02*
X1670Y69D01*
X1713Y69D02*
X1719Y69D01*
X1736Y69D02*
X1750Y69D01*
X1763Y69D02*
X1769Y69D01*
X1785Y69D02*
X1792Y69D01*
X1807Y69D02*
X1818Y69D01*
X1834Y69D02*
X1841Y69D01*
X1859Y69D02*
X1866Y69D01*
X1882Y69D02*
X1888Y69D01*
X1896Y69D02*
X1902Y69D01*
X1909Y69D02*
X1915Y69D01*
X1932Y69D02*
X1938Y69D01*
X1957Y69D02*
X1964Y69D01*
X1993Y69D02*
X1999Y69D01*
X2042Y69D02*
X2048Y69D01*
X2126Y69D02*
X2132Y69D01*
X2153Y69D02*
X2159Y69D01*
X2175Y69D02*
X2189Y69D01*
X2202Y69D02*
X2208Y69D01*
X2224Y69D02*
X2231Y69D01*
X2250Y69D02*
X2256Y69D01*
X2279Y69D02*
X2285Y69D01*
X2322Y69D02*
X2328Y69D01*
X2347Y69D02*
X2354Y69D01*
X2419Y69D02*
X2425Y69D01*
X2445Y69D02*
X2451Y69D01*
X2468Y69D02*
X2474Y69D01*
X2495Y69D02*
X2500Y69D01*
X2530Y69D02*
X2536Y69D01*
X1492Y68D02*
X1498Y68D01*
X1504Y68D02*
X1511Y68D01*
X1541Y68D02*
X1547Y68D01*
X1567Y68D02*
X1573Y68D01*
X1591Y68D02*
X1599Y68D01*
X1639Y68D02*
X1649Y68D01*
X1665Y68D02*
X1670Y68D01*
X1713Y68D02*
X1719Y68D01*
X1736Y68D02*
X1749Y68D01*
X1763Y68D02*
X1769Y68D01*
X1785Y68D02*
X1791Y68D01*
X1808Y68D02*
X1818Y68D01*
X1834Y68D02*
X1840Y68D01*
X1860Y68D02*
X1866Y68D01*
X1882Y68D02*
X1888Y68D01*
X1896Y68D02*
X1902Y68D01*
X1909Y68D02*
X1915Y68D01*
X1931Y68D02*
X1937Y68D01*
X1958Y68D02*
X1964Y68D01*
X1993Y68D02*
X1999Y68D01*
X2042Y68D02*
X2048Y68D01*
X2126Y68D02*
X2132Y68D01*
X2152Y68D02*
X2159Y68D01*
X2175Y68D02*
X2188Y68D01*
X2202Y68D02*
X2208Y68D01*
X2224Y68D02*
X2230Y68D01*
X2250Y68D02*
X2256Y68D01*
X2279Y68D02*
X2285Y68D01*
X2322Y68D02*
X2328Y68D01*
X2348Y68D02*
X2354Y68D01*
X2419Y68D02*
X2426Y68D01*
X2445Y68D02*
X2451Y68D01*
X2468Y68D02*
X2474Y68D01*
X2495Y68D02*
X2500Y68D01*
X2530Y68D02*
X2536Y68D01*
X1492Y67D02*
X1498Y67D01*
X1505Y67D02*
X1512Y67D01*
X1541Y67D02*
X1547Y67D01*
X1568Y67D02*
X1574Y67D01*
X1590Y67D02*
X1598Y67D01*
X1639Y67D02*
X1648Y67D01*
X1665Y67D02*
X1670Y67D01*
X1713Y67D02*
X1719Y67D01*
X1736Y67D02*
X1747Y67D01*
X1763Y67D02*
X1769Y67D01*
X1785Y67D02*
X1791Y67D01*
X1809Y67D02*
X1818Y67D01*
X1834Y67D02*
X1840Y67D01*
X1860Y67D02*
X1866Y67D01*
X1882Y67D02*
X1888Y67D01*
X1896Y67D02*
X1902Y67D01*
X1909Y67D02*
X1915Y67D01*
X1931Y67D02*
X1937Y67D01*
X1958Y67D02*
X1964Y67D01*
X1993Y67D02*
X1999Y67D01*
X2042Y67D02*
X2048Y67D01*
X2126Y67D02*
X2158Y67D01*
X2175Y67D02*
X2186Y67D01*
X2202Y67D02*
X2208Y67D01*
X2224Y67D02*
X2230Y67D01*
X2251Y67D02*
X2256Y67D01*
X2279Y67D02*
X2285Y67D01*
X2322Y67D02*
X2327Y67D01*
X2348Y67D02*
X2354Y67D01*
X2420Y67D02*
X2426Y67D01*
X2444Y67D02*
X2451Y67D01*
X2468Y67D02*
X2474Y67D01*
X2495Y67D02*
X2500Y67D01*
X2530Y67D02*
X2536Y67D01*
X1492Y66D02*
X1498Y66D01*
X1505Y66D02*
X1512Y66D01*
X1541Y66D02*
X1547Y66D01*
X1568Y66D02*
X1574Y66D01*
X1590Y66D02*
X1597Y66D01*
X1639Y66D02*
X1646Y66D01*
X1665Y66D02*
X1670Y66D01*
X1713Y66D02*
X1719Y66D01*
X1736Y66D02*
X1746Y66D01*
X1763Y66D02*
X1769Y66D01*
X1785Y66D02*
X1791Y66D01*
X1811Y66D02*
X1818Y66D01*
X1834Y66D02*
X1840Y66D01*
X1860Y66D02*
X1866Y66D01*
X1882Y66D02*
X1888Y66D01*
X1896Y66D02*
X1902Y66D01*
X1909Y66D02*
X1915Y66D01*
X1931Y66D02*
X1937Y66D01*
X1958Y66D02*
X1964Y66D01*
X1993Y66D02*
X1999Y66D01*
X2042Y66D02*
X2048Y66D01*
X2126Y66D02*
X2158Y66D01*
X2175Y66D02*
X2185Y66D01*
X2202Y66D02*
X2208Y66D01*
X2224Y66D02*
X2230Y66D01*
X2251Y66D02*
X2257Y66D01*
X2279Y66D02*
X2285Y66D01*
X2321Y66D02*
X2327Y66D01*
X2348Y66D02*
X2354Y66D01*
X2420Y66D02*
X2427Y66D01*
X2444Y66D02*
X2450Y66D01*
X2468Y66D02*
X2474Y66D01*
X2495Y66D02*
X2500Y66D01*
X2530Y66D02*
X2536Y66D01*
X1492Y65D02*
X1498Y65D01*
X1506Y65D02*
X1513Y65D01*
X1541Y65D02*
X1547Y65D01*
X1568Y65D02*
X1574Y65D01*
X1590Y65D02*
X1596Y65D01*
X1639Y65D02*
X1645Y65D01*
X1665Y65D02*
X1670Y65D01*
X1713Y65D02*
X1719Y65D01*
X1736Y65D02*
X1745Y65D01*
X1763Y65D02*
X1768Y65D01*
X1785Y65D02*
X1791Y65D01*
X1811Y65D02*
X1818Y65D01*
X1834Y65D02*
X1840Y65D01*
X1860Y65D02*
X1866Y65D01*
X1882Y65D02*
X1888Y65D01*
X1896Y65D02*
X1902Y65D01*
X1909Y65D02*
X1915Y65D01*
X1931Y65D02*
X1937Y65D01*
X1958Y65D02*
X1964Y65D01*
X1993Y65D02*
X1999Y65D01*
X2042Y65D02*
X2048Y65D01*
X2126Y65D02*
X2157Y65D01*
X2175Y65D02*
X2184Y65D01*
X2202Y65D02*
X2207Y65D01*
X2224Y65D02*
X2230Y65D01*
X2251Y65D02*
X2257Y65D01*
X2279Y65D02*
X2285Y65D01*
X2321Y65D02*
X2327Y65D01*
X2348Y65D02*
X2354Y65D01*
X2421Y65D02*
X2427Y65D01*
X2443Y65D02*
X2450Y65D01*
X2468Y65D02*
X2474Y65D01*
X2495Y65D02*
X2500Y65D01*
X2530Y65D02*
X2536Y65D01*
X1492Y64D02*
X1498Y64D01*
X1507Y64D02*
X1514Y64D01*
X1541Y64D02*
X1547Y64D01*
X1568Y64D02*
X1574Y64D01*
X1590Y64D02*
X1596Y64D01*
X1639Y64D02*
X1644Y64D01*
X1665Y64D02*
X1670Y64D01*
X1694Y64D02*
X1719Y64D01*
X1736Y64D02*
X1744Y64D01*
X1764Y64D02*
X1767Y64D01*
X1785Y64D02*
X1791Y64D01*
X1812Y64D02*
X1818Y64D01*
X1834Y64D02*
X1840Y64D01*
X1860Y64D02*
X1866Y64D01*
X1882Y64D02*
X1888Y64D01*
X1896Y64D02*
X1902Y64D01*
X1909Y64D02*
X1915Y64D01*
X1931Y64D02*
X1937Y64D01*
X1958Y64D02*
X1964Y64D01*
X1993Y64D02*
X1999Y64D01*
X2042Y64D02*
X2048Y64D01*
X2126Y64D02*
X2156Y64D01*
X2175Y64D02*
X2183Y64D01*
X2203Y64D02*
X2206Y64D01*
X2224Y64D02*
X2230Y64D01*
X2251Y64D02*
X2257Y64D01*
X2279Y64D02*
X2285Y64D01*
X2321Y64D02*
X2327Y64D01*
X2348Y64D02*
X2354Y64D01*
X2421Y64D02*
X2428Y64D01*
X2443Y64D02*
X2449Y64D01*
X2468Y64D02*
X2474Y64D01*
X2495Y64D02*
X2500Y64D01*
X2530Y64D02*
X2536Y64D01*
X2545Y64D02*
X2547Y64D01*
X1492Y63D02*
X1498Y63D01*
X1507Y63D02*
X1514Y63D01*
X1541Y63D02*
X1547Y63D01*
X1568Y63D02*
X1574Y63D01*
X1590Y63D02*
X1596Y63D01*
X1639Y63D02*
X1644Y63D01*
X1665Y63D02*
X1670Y63D01*
X1692Y63D02*
X1719Y63D01*
X1736Y63D02*
X1743Y63D01*
X1785Y63D02*
X1791Y63D01*
X1812Y63D02*
X1818Y63D01*
X1834Y63D02*
X1840Y63D01*
X1860Y63D02*
X1866Y63D01*
X1882Y63D02*
X1888Y63D01*
X1896Y63D02*
X1902Y63D01*
X1909Y63D02*
X1915Y63D01*
X1931Y63D02*
X1937Y63D01*
X1958Y63D02*
X1964Y63D01*
X1993Y63D02*
X1999Y63D01*
X2042Y63D02*
X2048Y63D01*
X2126Y63D02*
X2155Y63D01*
X2175Y63D02*
X2182Y63D01*
X2224Y63D02*
X2230Y63D01*
X2251Y63D02*
X2257Y63D01*
X2279Y63D02*
X2285Y63D01*
X2321Y63D02*
X2327Y63D01*
X2348Y63D02*
X2354Y63D01*
X2422Y63D02*
X2428Y63D01*
X2443Y63D02*
X2449Y63D01*
X2468Y63D02*
X2474Y63D01*
X2495Y63D02*
X2500Y63D01*
X2530Y63D02*
X2536Y63D01*
X2544Y63D02*
X2548Y63D01*
X1492Y62D02*
X1498Y62D01*
X1508Y62D02*
X1515Y62D01*
X1541Y62D02*
X1547Y62D01*
X1568Y62D02*
X1574Y62D01*
X1590Y62D02*
X1596Y62D01*
X1639Y62D02*
X1644Y62D01*
X1665Y62D02*
X1671Y62D01*
X1691Y62D02*
X1719Y62D01*
X1736Y62D02*
X1742Y62D01*
X1785Y62D02*
X1791Y62D01*
X1812Y62D02*
X1818Y62D01*
X1834Y62D02*
X1840Y62D01*
X1860Y62D02*
X1866Y62D01*
X1882Y62D02*
X1888Y62D01*
X1896Y62D02*
X1902Y62D01*
X1909Y62D02*
X1915Y62D01*
X1931Y62D02*
X1937Y62D01*
X1958Y62D02*
X1964Y62D01*
X1993Y62D02*
X1999Y62D01*
X2042Y62D02*
X2048Y62D01*
X2126Y62D02*
X2154Y62D01*
X2175Y62D02*
X2181Y62D01*
X2224Y62D02*
X2230Y62D01*
X2251Y62D02*
X2257Y62D01*
X2279Y62D02*
X2285Y62D01*
X2321Y62D02*
X2327Y62D01*
X2348Y62D02*
X2354Y62D01*
X2422Y62D02*
X2428Y62D01*
X2442Y62D02*
X2449Y62D01*
X2468Y62D02*
X2474Y62D01*
X2495Y62D02*
X2500Y62D01*
X2530Y62D02*
X2536Y62D01*
X2544Y62D02*
X2549Y62D01*
X1492Y61D02*
X1498Y61D01*
X1508Y61D02*
X1515Y61D01*
X1541Y61D02*
X1574Y61D01*
X1590Y61D02*
X1596Y61D01*
X1639Y61D02*
X1644Y61D01*
X1665Y61D02*
X1671Y61D01*
X1690Y61D02*
X1719Y61D01*
X1736Y61D02*
X1742Y61D01*
X1785Y61D02*
X1791Y61D01*
X1812Y61D02*
X1818Y61D01*
X1834Y61D02*
X1866Y61D01*
X1882Y61D02*
X1888Y61D01*
X1896Y61D02*
X1902Y61D01*
X1909Y61D02*
X1915Y61D01*
X1931Y61D02*
X1964Y61D01*
X1993Y61D02*
X1999Y61D01*
X2042Y61D02*
X2048Y61D01*
X2126Y61D02*
X2152Y61D01*
X2175Y61D02*
X2181Y61D01*
X2224Y61D02*
X2230Y61D01*
X2251Y61D02*
X2257Y61D01*
X2279Y61D02*
X2285Y61D01*
X2321Y61D02*
X2327Y61D01*
X2348Y61D02*
X2354Y61D01*
X2422Y61D02*
X2429Y61D01*
X2442Y61D02*
X2448Y61D01*
X2468Y61D02*
X2474Y61D01*
X2495Y61D02*
X2500Y61D01*
X2530Y61D02*
X2536Y61D01*
X2543Y61D02*
X2549Y61D01*
X1492Y60D02*
X1498Y60D01*
X1509Y60D02*
X1516Y60D01*
X1541Y60D02*
X1574Y60D01*
X1590Y60D02*
X1596Y60D01*
X1639Y60D02*
X1644Y60D01*
X1665Y60D02*
X1671Y60D01*
X1689Y60D02*
X1719Y60D01*
X1736Y60D02*
X1742Y60D01*
X1785Y60D02*
X1791Y60D01*
X1812Y60D02*
X1818Y60D01*
X1834Y60D02*
X1866Y60D01*
X1882Y60D02*
X1888Y60D01*
X1896Y60D02*
X1902Y60D01*
X1909Y60D02*
X1915Y60D01*
X1931Y60D02*
X1964Y60D01*
X1993Y60D02*
X1999Y60D01*
X2042Y60D02*
X2048Y60D01*
X2126Y60D02*
X2132Y60D01*
X2175Y60D02*
X2181Y60D01*
X2224Y60D02*
X2230Y60D01*
X2251Y60D02*
X2257Y60D01*
X2279Y60D02*
X2285Y60D01*
X2321Y60D02*
X2327Y60D01*
X2348Y60D02*
X2354Y60D01*
X2423Y60D02*
X2429Y60D01*
X2441Y60D02*
X2448Y60D01*
X2468Y60D02*
X2474Y60D01*
X2495Y60D02*
X2500Y60D01*
X2530Y60D02*
X2536Y60D01*
X2543Y60D02*
X2549Y60D01*
X1492Y59D02*
X1498Y59D01*
X1510Y59D02*
X1517Y59D01*
X1541Y59D02*
X1574Y59D01*
X1590Y59D02*
X1596Y59D01*
X1639Y59D02*
X1644Y59D01*
X1665Y59D02*
X1671Y59D01*
X1689Y59D02*
X1719Y59D01*
X1736Y59D02*
X1742Y59D01*
X1785Y59D02*
X1791Y59D01*
X1812Y59D02*
X1818Y59D01*
X1834Y59D02*
X1866Y59D01*
X1882Y59D02*
X1888Y59D01*
X1896Y59D02*
X1902Y59D01*
X1909Y59D02*
X1915Y59D01*
X1931Y59D02*
X1964Y59D01*
X1993Y59D02*
X1999Y59D01*
X2042Y59D02*
X2048Y59D01*
X2126Y59D02*
X2132Y59D01*
X2175Y59D02*
X2181Y59D01*
X2224Y59D02*
X2230Y59D01*
X2251Y59D02*
X2257Y59D01*
X2279Y59D02*
X2285Y59D01*
X2321Y59D02*
X2327Y59D01*
X2348Y59D02*
X2354Y59D01*
X2423Y59D02*
X2430Y59D01*
X2441Y59D02*
X2447Y59D01*
X2468Y59D02*
X2474Y59D01*
X2495Y59D02*
X2500Y59D01*
X2530Y59D02*
X2536Y59D01*
X2543Y59D02*
X2549Y59D01*
X1492Y58D02*
X1498Y58D01*
X1510Y58D02*
X1517Y58D01*
X1541Y58D02*
X1574Y58D01*
X1590Y58D02*
X1596Y58D01*
X1639Y58D02*
X1644Y58D01*
X1665Y58D02*
X1671Y58D01*
X1688Y58D02*
X1719Y58D01*
X1736Y58D02*
X1742Y58D01*
X1785Y58D02*
X1791Y58D01*
X1812Y58D02*
X1818Y58D01*
X1834Y58D02*
X1866Y58D01*
X1882Y58D02*
X1888Y58D01*
X1896Y58D02*
X1902Y58D01*
X1909Y58D02*
X1915Y58D01*
X1931Y58D02*
X1964Y58D01*
X1993Y58D02*
X1999Y58D01*
X2042Y58D02*
X2048Y58D01*
X2126Y58D02*
X2132Y58D01*
X2175Y58D02*
X2181Y58D01*
X2224Y58D02*
X2230Y58D01*
X2251Y58D02*
X2257Y58D01*
X2279Y58D02*
X2285Y58D01*
X2321Y58D02*
X2327Y58D01*
X2348Y58D02*
X2354Y58D01*
X2424Y58D02*
X2430Y58D01*
X2440Y58D02*
X2447Y58D01*
X2468Y58D02*
X2474Y58D01*
X2495Y58D02*
X2500Y58D01*
X2530Y58D02*
X2536Y58D01*
X2543Y58D02*
X2549Y58D01*
X1492Y57D02*
X1498Y57D01*
X1511Y57D02*
X1518Y57D01*
X1541Y57D02*
X1573Y57D01*
X1590Y57D02*
X1596Y57D01*
X1639Y57D02*
X1644Y57D01*
X1665Y57D02*
X1671Y57D01*
X1688Y57D02*
X1695Y57D01*
X1712Y57D02*
X1719Y57D01*
X1736Y57D02*
X1742Y57D01*
X1785Y57D02*
X1791Y57D01*
X1811Y57D02*
X1818Y57D01*
X1834Y57D02*
X1866Y57D01*
X1882Y57D02*
X1888Y57D01*
X1896Y57D02*
X1902Y57D01*
X1909Y57D02*
X1915Y57D01*
X1931Y57D02*
X1964Y57D01*
X1993Y57D02*
X1999Y57D01*
X2042Y57D02*
X2048Y57D01*
X2126Y57D02*
X2132Y57D01*
X2175Y57D02*
X2181Y57D01*
X2224Y57D02*
X2230Y57D01*
X2251Y57D02*
X2257Y57D01*
X2279Y57D02*
X2285Y57D01*
X2321Y57D02*
X2327Y57D01*
X2348Y57D02*
X2354Y57D01*
X2424Y57D02*
X2431Y57D01*
X2440Y57D02*
X2446Y57D01*
X2468Y57D02*
X2474Y57D01*
X2495Y57D02*
X2500Y57D01*
X2530Y57D02*
X2536Y57D01*
X2543Y57D02*
X2549Y57D01*
X1492Y56D02*
X1498Y56D01*
X1511Y56D02*
X1518Y56D01*
X1541Y56D02*
X1573Y56D01*
X1590Y56D02*
X1596Y56D01*
X1639Y56D02*
X1644Y56D01*
X1665Y56D02*
X1671Y56D01*
X1688Y56D02*
X1694Y56D01*
X1713Y56D02*
X1720Y56D01*
X1736Y56D02*
X1742Y56D01*
X1785Y56D02*
X1791Y56D01*
X1811Y56D02*
X1818Y56D01*
X1834Y56D02*
X1865Y56D01*
X1882Y56D02*
X1888Y56D01*
X1896Y56D02*
X1902Y56D01*
X1909Y56D02*
X1915Y56D01*
X1931Y56D02*
X1963Y56D01*
X1993Y56D02*
X1999Y56D01*
X2042Y56D02*
X2048Y56D01*
X2126Y56D02*
X2132Y56D01*
X2175Y56D02*
X2181Y56D01*
X2224Y56D02*
X2230Y56D01*
X2251Y56D02*
X2257Y56D01*
X2279Y56D02*
X2285Y56D01*
X2321Y56D02*
X2327Y56D01*
X2348Y56D02*
X2354Y56D01*
X2425Y56D02*
X2431Y56D01*
X2439Y56D02*
X2446Y56D01*
X2468Y56D02*
X2474Y56D01*
X2495Y56D02*
X2500Y56D01*
X2530Y56D02*
X2536Y56D01*
X2543Y56D02*
X2549Y56D01*
X1492Y55D02*
X1498Y55D01*
X1512Y55D02*
X1519Y55D01*
X1541Y55D02*
X1571Y55D01*
X1590Y55D02*
X1596Y55D01*
X1639Y55D02*
X1644Y55D01*
X1665Y55D02*
X1671Y55D01*
X1687Y55D02*
X1693Y55D01*
X1714Y55D02*
X1720Y55D01*
X1736Y55D02*
X1742Y55D01*
X1785Y55D02*
X1791Y55D01*
X1809Y55D02*
X1818Y55D01*
X1834Y55D02*
X1864Y55D01*
X1882Y55D02*
X1888Y55D01*
X1896Y55D02*
X1902Y55D01*
X1909Y55D02*
X1915Y55D01*
X1931Y55D02*
X1962Y55D01*
X1993Y55D02*
X1999Y55D01*
X2042Y55D02*
X2048Y55D01*
X2126Y55D02*
X2132Y55D01*
X2175Y55D02*
X2181Y55D01*
X2224Y55D02*
X2230Y55D01*
X2251Y55D02*
X2257Y55D01*
X2279Y55D02*
X2285Y55D01*
X2321Y55D02*
X2327Y55D01*
X2348Y55D02*
X2354Y55D01*
X2425Y55D02*
X2431Y55D01*
X2439Y55D02*
X2445Y55D01*
X2468Y55D02*
X2474Y55D01*
X2495Y55D02*
X2500Y55D01*
X2530Y55D02*
X2536Y55D01*
X2543Y55D02*
X2549Y55D01*
X1492Y54D02*
X1498Y54D01*
X1513Y54D02*
X1519Y54D01*
X1541Y54D02*
X1547Y54D01*
X1590Y54D02*
X1596Y54D01*
X1639Y54D02*
X1644Y54D01*
X1665Y54D02*
X1671Y54D01*
X1687Y54D02*
X1693Y54D01*
X1714Y54D02*
X1720Y54D01*
X1736Y54D02*
X1742Y54D01*
X1785Y54D02*
X1791Y54D01*
X1808Y54D02*
X1818Y54D01*
X1834Y54D02*
X1840Y54D01*
X1882Y54D02*
X1888Y54D01*
X1896Y54D02*
X1902Y54D01*
X1909Y54D02*
X1915Y54D01*
X1931Y54D02*
X1937Y54D01*
X1993Y54D02*
X1999Y54D01*
X2042Y54D02*
X2048Y54D01*
X2126Y54D02*
X2132Y54D01*
X2175Y54D02*
X2181Y54D01*
X2224Y54D02*
X2230Y54D01*
X2251Y54D02*
X2257Y54D01*
X2279Y54D02*
X2285Y54D01*
X2321Y54D02*
X2327Y54D01*
X2348Y54D02*
X2354Y54D01*
X2425Y54D02*
X2432Y54D01*
X2439Y54D02*
X2445Y54D01*
X2468Y54D02*
X2474Y54D01*
X2495Y54D02*
X2500Y54D01*
X2530Y54D02*
X2536Y54D01*
X2543Y54D02*
X2549Y54D01*
X1492Y53D02*
X1498Y53D01*
X1513Y53D02*
X1520Y53D01*
X1541Y53D02*
X1547Y53D01*
X1590Y53D02*
X1597Y53D01*
X1639Y53D02*
X1644Y53D01*
X1665Y53D02*
X1671Y53D01*
X1687Y53D02*
X1693Y53D01*
X1714Y53D02*
X1720Y53D01*
X1736Y53D02*
X1742Y53D01*
X1785Y53D02*
X1792Y53D01*
X1807Y53D02*
X1818Y53D01*
X1834Y53D02*
X1840Y53D01*
X1882Y53D02*
X1888Y53D01*
X1896Y53D02*
X1902Y53D01*
X1909Y53D02*
X1915Y53D01*
X1931Y53D02*
X1937Y53D01*
X1993Y53D02*
X1999Y53D01*
X2042Y53D02*
X2048Y53D01*
X2126Y53D02*
X2132Y53D01*
X2175Y53D02*
X2181Y53D01*
X2224Y53D02*
X2230Y53D01*
X2251Y53D02*
X2257Y53D01*
X2279Y53D02*
X2285Y53D01*
X2321Y53D02*
X2327Y53D01*
X2348Y53D02*
X2354Y53D01*
X2426Y53D02*
X2432Y53D01*
X2438Y53D02*
X2445Y53D01*
X2468Y53D02*
X2474Y53D01*
X2495Y53D02*
X2500Y53D01*
X2530Y53D02*
X2536Y53D01*
X2543Y53D02*
X2549Y53D01*
X1492Y52D02*
X1498Y52D01*
X1514Y52D02*
X1521Y52D01*
X1541Y52D02*
X1547Y52D01*
X1590Y52D02*
X1598Y52D01*
X1639Y52D02*
X1644Y52D01*
X1665Y52D02*
X1671Y52D01*
X1687Y52D02*
X1693Y52D01*
X1714Y52D02*
X1720Y52D01*
X1736Y52D02*
X1742Y52D01*
X1786Y52D02*
X1793Y52D01*
X1806Y52D02*
X1818Y52D01*
X1834Y52D02*
X1840Y52D01*
X1882Y52D02*
X1888Y52D01*
X1896Y52D02*
X1902Y52D01*
X1909Y52D02*
X1915Y52D01*
X1931Y52D02*
X1937Y52D01*
X1993Y52D02*
X1999Y52D01*
X2042Y52D02*
X2048Y52D01*
X2126Y52D02*
X2132Y52D01*
X2175Y52D02*
X2181Y52D01*
X2224Y52D02*
X2230Y52D01*
X2251Y52D02*
X2256Y52D01*
X2279Y52D02*
X2285Y52D01*
X2301Y52D02*
X2304Y52D01*
X2322Y52D02*
X2327Y52D01*
X2348Y52D02*
X2354Y52D01*
X2426Y52D02*
X2433Y52D01*
X2438Y52D02*
X2444Y52D01*
X2468Y52D02*
X2474Y52D01*
X2495Y52D02*
X2500Y52D01*
X2530Y52D02*
X2536Y52D01*
X2543Y52D02*
X2549Y52D01*
X1492Y51D02*
X1498Y51D01*
X1514Y51D02*
X1521Y51D01*
X1541Y51D02*
X1547Y51D01*
X1591Y51D02*
X1599Y51D01*
X1639Y51D02*
X1644Y51D01*
X1665Y51D02*
X1671Y51D01*
X1687Y51D02*
X1693Y51D01*
X1713Y51D02*
X1720Y51D01*
X1736Y51D02*
X1742Y51D01*
X1786Y51D02*
X1794Y51D01*
X1805Y51D02*
X1818Y51D01*
X1834Y51D02*
X1840Y51D01*
X1882Y51D02*
X1888Y51D01*
X1896Y51D02*
X1902Y51D01*
X1909Y51D02*
X1915Y51D01*
X1931Y51D02*
X1938Y51D01*
X1993Y51D02*
X1999Y51D01*
X2042Y51D02*
X2048Y51D01*
X2126Y51D02*
X2132Y51D01*
X2175Y51D02*
X2181Y51D01*
X2224Y51D02*
X2230Y51D01*
X2250Y51D02*
X2256Y51D01*
X2279Y51D02*
X2285Y51D01*
X2300Y51D02*
X2305Y51D01*
X2322Y51D02*
X2328Y51D01*
X2348Y51D02*
X2354Y51D01*
X2427Y51D02*
X2433Y51D01*
X2437Y51D02*
X2444Y51D01*
X2468Y51D02*
X2474Y51D01*
X2495Y51D02*
X2500Y51D01*
X2530Y51D02*
X2536Y51D01*
X2543Y51D02*
X2549Y51D01*
X1492Y50D02*
X1498Y50D01*
X1515Y50D02*
X1522Y50D01*
X1541Y50D02*
X1548Y50D01*
X1591Y50D02*
X1600Y50D01*
X1639Y50D02*
X1644Y50D01*
X1665Y50D02*
X1671Y50D01*
X1687Y50D02*
X1693Y50D01*
X1711Y50D02*
X1720Y50D01*
X1736Y50D02*
X1742Y50D01*
X1787Y50D02*
X1818Y50D01*
X1834Y50D02*
X1841Y50D01*
X1882Y50D02*
X1889Y50D01*
X1895Y50D02*
X1902Y50D01*
X1909Y50D02*
X1915Y50D01*
X1932Y50D02*
X1938Y50D01*
X1993Y50D02*
X1999Y50D01*
X2042Y50D02*
X2048Y50D01*
X2126Y50D02*
X2132Y50D01*
X2175Y50D02*
X2181Y50D01*
X2224Y50D02*
X2231Y50D01*
X2249Y50D02*
X2256Y50D01*
X2279Y50D02*
X2285Y50D01*
X2299Y50D02*
X2305Y50D01*
X2322Y50D02*
X2329Y50D01*
X2347Y50D02*
X2354Y50D01*
X2427Y50D02*
X2434Y50D01*
X2437Y50D02*
X2443Y50D01*
X2468Y50D02*
X2474Y50D01*
X2495Y50D02*
X2500Y50D01*
X2530Y50D02*
X2536Y50D01*
X2543Y50D02*
X2549Y50D01*
X1492Y49D02*
X1498Y49D01*
X1515Y49D02*
X1522Y49D01*
X1542Y49D02*
X1549Y49D01*
X1592Y49D02*
X1601Y49D01*
X1639Y49D02*
X1644Y49D01*
X1665Y49D02*
X1671Y49D01*
X1688Y49D02*
X1694Y49D01*
X1709Y49D02*
X1720Y49D01*
X1736Y49D02*
X1742Y49D01*
X1787Y49D02*
X1818Y49D01*
X1834Y49D02*
X1842Y49D01*
X1882Y49D02*
X1889Y49D01*
X1895Y49D02*
X1903Y49D01*
X1908Y49D02*
X1915Y49D01*
X1932Y49D02*
X1939Y49D01*
X1993Y49D02*
X1999Y49D01*
X2042Y49D02*
X2048Y49D01*
X2126Y49D02*
X2132Y49D01*
X2175Y49D02*
X2181Y49D01*
X2225Y49D02*
X2232Y49D01*
X2248Y49D02*
X2256Y49D01*
X2279Y49D02*
X2286Y49D01*
X2299Y49D02*
X2305Y49D01*
X2322Y49D02*
X2330Y49D01*
X2346Y49D02*
X2353Y49D01*
X2428Y49D02*
X2434Y49D01*
X2436Y49D02*
X2443Y49D01*
X2468Y49D02*
X2474Y49D01*
X2495Y49D02*
X2500Y49D01*
X2530Y49D02*
X2536Y49D01*
X2543Y49D02*
X2549Y49D01*
X1492Y48D02*
X1498Y48D01*
X1516Y48D02*
X1523Y48D01*
X1542Y48D02*
X1551Y48D01*
X1593Y48D02*
X1603Y48D01*
X1639Y48D02*
X1644Y48D01*
X1665Y48D02*
X1671Y48D01*
X1688Y48D02*
X1694Y48D01*
X1708Y48D02*
X1720Y48D01*
X1736Y48D02*
X1742Y48D01*
X1788Y48D02*
X1818Y48D01*
X1835Y48D02*
X1843Y48D01*
X1883Y48D02*
X1890Y48D01*
X1894Y48D02*
X1903Y48D01*
X1908Y48D02*
X1915Y48D01*
X1932Y48D02*
X1941Y48D01*
X1993Y48D02*
X1999Y48D01*
X2042Y48D02*
X2048Y48D01*
X2126Y48D02*
X2132Y48D01*
X2175Y48D02*
X2181Y48D01*
X2225Y48D02*
X2233Y48D01*
X2247Y48D02*
X2255Y48D01*
X2280Y48D02*
X2286Y48D01*
X2298Y48D02*
X2305Y48D01*
X2323Y48D02*
X2331Y48D01*
X2345Y48D02*
X2353Y48D01*
X2428Y48D02*
X2442Y48D01*
X2468Y48D02*
X2474Y48D01*
X2495Y48D02*
X2500Y48D01*
X2530Y48D02*
X2536Y48D01*
X2543Y48D02*
X2549Y48D01*
X1492Y47D02*
X1498Y47D01*
X1517Y47D02*
X1524Y47D01*
X1543Y47D02*
X1571Y47D01*
X1594Y47D02*
X1620Y47D01*
X1639Y47D02*
X1644Y47D01*
X1665Y47D02*
X1671Y47D01*
X1688Y47D02*
X1720Y47D01*
X1736Y47D02*
X1742Y47D01*
X1789Y47D02*
X1810Y47D01*
X1812Y47D02*
X1818Y47D01*
X1835Y47D02*
X1864Y47D01*
X1883Y47D02*
X1914Y47D01*
X1933Y47D02*
X1962Y47D01*
X1986Y47D02*
X2007Y47D01*
X2034Y47D02*
X2056Y47D01*
X2126Y47D02*
X2132Y47D01*
X2175Y47D02*
X2181Y47D01*
X2226Y47D02*
X2255Y47D01*
X2280Y47D02*
X2305Y47D01*
X2323Y47D02*
X2352Y47D01*
X2429Y47D02*
X2442Y47D01*
X2468Y47D02*
X2500Y47D01*
X2519Y47D02*
X2549Y47D01*
X1492Y46D02*
X1498Y46D01*
X1517Y46D02*
X1524Y46D01*
X1544Y46D02*
X1573Y46D01*
X1595Y46D02*
X1622Y46D01*
X1639Y46D02*
X1644Y46D01*
X1665Y46D02*
X1671Y46D01*
X1688Y46D02*
X1720Y46D01*
X1736Y46D02*
X1742Y46D01*
X1791Y46D02*
X1809Y46D01*
X1812Y46D02*
X1818Y46D01*
X1836Y46D02*
X1865Y46D01*
X1884Y46D02*
X1913Y46D01*
X1934Y46D02*
X1963Y46D01*
X1984Y46D02*
X2008Y46D01*
X2033Y46D02*
X2057Y46D01*
X2126Y46D02*
X2132Y46D01*
X2175Y46D02*
X2181Y46D01*
X2226Y46D02*
X2254Y46D01*
X2280Y46D02*
X2304Y46D01*
X2324Y46D02*
X2351Y46D01*
X2429Y46D02*
X2442Y46D01*
X2468Y46D02*
X2500Y46D01*
X2517Y46D02*
X2549Y46D01*
X1492Y45D02*
X1498Y45D01*
X1518Y45D02*
X1525Y45D01*
X1545Y45D02*
X1573Y45D01*
X1597Y45D02*
X1622Y45D01*
X1639Y45D02*
X1644Y45D01*
X1665Y45D02*
X1671Y45D01*
X1689Y45D02*
X1720Y45D01*
X1736Y45D02*
X1742Y45D01*
X1792Y45D02*
X1807Y45D01*
X1812Y45D02*
X1818Y45D01*
X1837Y45D02*
X1866Y45D01*
X1885Y45D02*
X1913Y45D01*
X1935Y45D02*
X1964Y45D01*
X1984Y45D02*
X2009Y45D01*
X2032Y45D02*
X2058Y45D01*
X2126Y45D02*
X2132Y45D01*
X2175Y45D02*
X2181Y45D01*
X2227Y45D02*
X2253Y45D01*
X2281Y45D02*
X2304Y45D01*
X2325Y45D02*
X2350Y45D01*
X2429Y45D02*
X2441Y45D01*
X2468Y45D02*
X2500Y45D01*
X2517Y45D02*
X2549Y45D01*
X1492Y44D02*
X1498Y44D01*
X1518Y44D02*
X1525Y44D01*
X1546Y44D02*
X1574Y44D01*
X1598Y44D02*
X1622Y44D01*
X1639Y44D02*
X1644Y44D01*
X1665Y44D02*
X1671Y44D01*
X1690Y44D02*
X1720Y44D01*
X1736Y44D02*
X1742Y44D01*
X1794Y44D02*
X1805Y44D01*
X1812Y44D02*
X1818Y44D01*
X1838Y44D02*
X1866Y44D01*
X1885Y44D02*
X1912Y44D01*
X1936Y44D02*
X1964Y44D01*
X1983Y44D02*
X2009Y44D01*
X2032Y44D02*
X2058Y44D01*
X2126Y44D02*
X2132Y44D01*
X2175Y44D02*
X2181Y44D01*
X2229Y44D02*
X2252Y44D01*
X2282Y44D02*
X2303Y44D01*
X2326Y44D02*
X2349Y44D01*
X2430Y44D02*
X2441Y44D01*
X2469Y44D02*
X2499Y44D01*
X2517Y44D02*
X2549Y44D01*
X1492Y43D02*
X1498Y43D01*
X1519Y43D02*
X1525Y43D01*
X1547Y43D02*
X1573Y43D01*
X1599Y43D02*
X1622Y43D01*
X1639Y43D02*
X1644Y43D01*
X1666Y43D02*
X1671Y43D01*
X1691Y43D02*
X1712Y43D01*
X1714Y43D02*
X1720Y43D01*
X1736Y43D02*
X1742Y43D01*
X1812Y43D02*
X1818Y43D01*
X1839Y43D02*
X1866Y43D01*
X1886Y43D02*
X1912Y43D01*
X1937Y43D02*
X1964Y43D01*
X1983Y43D02*
X2009Y43D01*
X2032Y43D02*
X2058Y43D01*
X2127Y43D02*
X2132Y43D01*
X2175Y43D02*
X2181Y43D01*
X2230Y43D02*
X2251Y43D01*
X2283Y43D02*
X2302Y43D01*
X2327Y43D02*
X2348Y43D01*
X2430Y43D02*
X2440Y43D01*
X2469Y43D02*
X2499Y43D01*
X2517Y43D02*
X2549Y43D01*
X1493Y42D02*
X1497Y42D01*
X1520Y42D02*
X1524Y42D01*
X1548Y42D02*
X1573Y42D01*
X1600Y42D02*
X1622Y42D01*
X1639Y42D02*
X1644Y42D01*
X1666Y42D02*
X1670Y42D01*
X1692Y42D02*
X1710Y42D01*
X1715Y42D02*
X1719Y42D01*
X1737Y42D02*
X1741Y42D01*
X1812Y42D02*
X1818Y42D01*
X1841Y42D02*
X1866Y42D01*
X1886Y42D02*
X1898Y42D01*
X1900Y42D02*
X1911Y42D01*
X1938Y42D02*
X1963Y42D01*
X1984Y42D02*
X2009Y42D01*
X2033Y42D02*
X2057Y42D01*
X2127Y42D02*
X2132Y42D01*
X2176Y42D02*
X2180Y42D01*
X2231Y42D02*
X2249Y42D01*
X2284Y42D02*
X2300Y42D01*
X2329Y42D02*
X2347Y42D01*
X2431Y42D02*
X2440Y42D01*
X2470Y42D02*
X2498Y42D01*
X2517Y42D02*
X2549Y42D01*
X1494Y41D02*
X1496Y41D01*
X1521Y41D02*
X1523Y41D01*
X1550Y41D02*
X1572Y41D01*
X1602Y41D02*
X1621Y41D01*
X1640Y41D02*
X1643Y41D01*
X1667Y41D02*
X1669Y41D01*
X1694Y41D02*
X1708Y41D01*
X1716Y41D02*
X1718Y41D01*
X1738Y41D02*
X1740Y41D01*
X1812Y41D02*
X1818Y41D01*
X1843Y41D02*
X1865Y41D01*
X1887Y41D02*
X1897Y41D01*
X1901Y41D02*
X1910Y41D01*
X1940Y41D02*
X1962Y41D01*
X1985Y41D02*
X2008Y41D01*
X2034Y41D02*
X2056Y41D01*
X2128Y41D02*
X2130Y41D01*
X2177Y41D02*
X2179Y41D01*
X2233Y41D02*
X2247Y41D01*
X2286Y41D02*
X2298Y41D01*
X2331Y41D02*
X2345Y41D01*
X2432Y41D02*
X2439Y41D01*
X2472Y41D02*
X2496Y41D01*
X2518Y41D02*
X2547Y41D01*
X1812Y40D02*
X1818Y40D01*
X1812Y39D02*
X1818Y39D01*
X1812Y38D02*
X1817Y38D01*
X1811Y37D02*
X1817Y37D01*
X1811Y36D02*
X1817Y36D01*
X1810Y35D02*
X1817Y35D01*
X1808Y34D02*
X1816Y34D01*
X1806Y33D02*
X1816Y33D01*
X1789Y32D02*
X1815Y32D01*
X1789Y31D02*
X1814Y31D01*
X1788Y30D02*
X1813Y30D01*
X1788Y29D02*
X1812Y29D01*
X1789Y28D02*
X1811Y28D01*
X1789Y27D02*
X1809Y27D01*
D02*
G04 End of Copper1*
M02*