G04 MADE WITH FRITZING*
G04 WWW.FRITZING.ORG*
G04 DOUBLE SIDED*
G04 HOLES PLATED*
G04 CONTOUR ON CENTER OF CONTOUR VECTOR*
%ASAXBY*%
%FSLAX23Y23*%
%MOIN*%
%OFA0B0*%
%SFA1.0B1.0*%
%ADD10C,0.084000*%
%ADD11C,0.069200*%
%ADD12C,0.088000*%
%ADD13C,0.075278*%
%ADD14C,0.128110*%
%ADD15R,0.069200X0.069200*%
%ADD16R,0.088000X0.088000*%
%ADD17R,0.001000X0.001000*%
%LNMASK1*%
G90*
G70*
G54D10*
X722Y145D03*
X822Y135D03*
X922Y145D03*
X1022Y135D03*
X1122Y145D03*
X1222Y135D03*
X722Y145D03*
X822Y135D03*
X922Y145D03*
X1022Y135D03*
X1122Y145D03*
X1222Y135D03*
G54D11*
X222Y908D03*
X222Y1145D03*
X222Y1066D03*
X222Y987D03*
G54D12*
X222Y2345D03*
X222Y2245D03*
X222Y2145D03*
X222Y2045D03*
X222Y1945D03*
X222Y1845D03*
X222Y1745D03*
G54D13*
X1022Y545D03*
X922Y545D03*
X822Y545D03*
X722Y545D03*
X622Y545D03*
X1482Y2445D03*
X1582Y2445D03*
X1682Y2445D03*
X1782Y2445D03*
X1882Y2445D03*
X1982Y2445D03*
X2082Y2445D03*
X2182Y2445D03*
X2282Y2445D03*
X2382Y2445D03*
X622Y2445D03*
X722Y2445D03*
X822Y2445D03*
X922Y2445D03*
X1022Y2445D03*
X1122Y2445D03*
X1222Y2445D03*
X1322Y2445D03*
X1922Y545D03*
X2022Y545D03*
X1822Y545D03*
X1722Y545D03*
X1622Y545D03*
X1522Y545D03*
X1422Y545D03*
X1322Y545D03*
X1122Y545D03*
X524Y1647D03*
X624Y1647D03*
X524Y1548D03*
X624Y1548D03*
X524Y1449D03*
X624Y1449D03*
X2392Y2302D03*
X2392Y2202D03*
X2288Y2302D03*
X2288Y2202D03*
X2496Y2302D03*
X2496Y2202D03*
X1022Y545D03*
X922Y545D03*
X822Y545D03*
X722Y545D03*
X622Y545D03*
X1482Y2445D03*
X1582Y2445D03*
X1682Y2445D03*
X1782Y2445D03*
X1882Y2445D03*
X1982Y2445D03*
X2082Y2445D03*
X2182Y2445D03*
X2282Y2445D03*
X2382Y2445D03*
X622Y2445D03*
X722Y2445D03*
X822Y2445D03*
X922Y2445D03*
X1022Y2445D03*
X1122Y2445D03*
X1222Y2445D03*
X1322Y2445D03*
X1922Y545D03*
X2022Y545D03*
X1822Y545D03*
X1722Y545D03*
X1622Y545D03*
X1522Y545D03*
X1422Y545D03*
X1322Y545D03*
X1122Y545D03*
X524Y1647D03*
X624Y1647D03*
X524Y1548D03*
X624Y1548D03*
X524Y1449D03*
X624Y1449D03*
X2392Y2302D03*
X2392Y2202D03*
X2288Y2302D03*
X2288Y2202D03*
X2496Y2302D03*
X2496Y2202D03*
G54D14*
X2722Y2545D03*
X2722Y145D03*
X122Y145D03*
X122Y2545D03*
G54D15*
X222Y908D03*
G54D16*
X222Y2345D03*
G54D17*
X682Y187D02*
X764Y187D01*
X681Y186D02*
X764Y186D01*
X681Y185D02*
X764Y185D01*
X681Y184D02*
X764Y184D01*
X681Y183D02*
X764Y183D01*
X681Y182D02*
X764Y182D01*
X681Y181D02*
X764Y181D01*
X681Y180D02*
X764Y180D01*
X681Y179D02*
X764Y179D01*
X681Y178D02*
X764Y178D01*
X681Y177D02*
X764Y177D01*
X681Y176D02*
X764Y176D01*
X681Y175D02*
X764Y175D01*
X681Y174D02*
X764Y174D01*
X681Y173D02*
X764Y173D01*
X681Y172D02*
X764Y172D01*
X681Y171D02*
X764Y171D01*
X681Y170D02*
X764Y170D01*
X681Y169D02*
X764Y169D01*
X681Y168D02*
X764Y168D01*
X681Y167D02*
X764Y167D01*
X681Y166D02*
X764Y166D01*
X681Y165D02*
X764Y165D01*
X681Y164D02*
X764Y164D01*
X681Y163D02*
X764Y163D01*
X681Y162D02*
X764Y162D01*
X681Y161D02*
X764Y161D01*
X681Y160D02*
X721Y160D01*
X725Y160D02*
X764Y160D01*
X681Y159D02*
X716Y159D01*
X729Y159D02*
X764Y159D01*
X681Y158D02*
X715Y158D01*
X731Y158D02*
X764Y158D01*
X681Y157D02*
X713Y157D01*
X732Y157D02*
X764Y157D01*
X681Y156D02*
X712Y156D01*
X734Y156D02*
X764Y156D01*
X681Y155D02*
X711Y155D01*
X735Y155D02*
X764Y155D01*
X681Y154D02*
X710Y154D01*
X735Y154D02*
X764Y154D01*
X681Y153D02*
X709Y153D01*
X736Y153D02*
X764Y153D01*
X681Y152D02*
X709Y152D01*
X737Y152D02*
X764Y152D01*
X681Y151D02*
X708Y151D01*
X737Y151D02*
X764Y151D01*
X681Y150D02*
X708Y150D01*
X738Y150D02*
X764Y150D01*
X681Y149D02*
X708Y149D01*
X738Y149D02*
X764Y149D01*
X681Y148D02*
X708Y148D01*
X738Y148D02*
X764Y148D01*
X681Y147D02*
X707Y147D01*
X738Y147D02*
X764Y147D01*
X681Y146D02*
X707Y146D01*
X738Y146D02*
X764Y146D01*
X681Y145D02*
X707Y145D01*
X738Y145D02*
X764Y145D01*
X681Y144D02*
X707Y144D01*
X738Y144D02*
X764Y144D01*
X681Y143D02*
X707Y143D01*
X738Y143D02*
X764Y143D01*
X681Y142D02*
X708Y142D01*
X738Y142D02*
X764Y142D01*
X681Y141D02*
X708Y141D01*
X738Y141D02*
X764Y141D01*
X681Y140D02*
X708Y140D01*
X737Y140D02*
X764Y140D01*
X681Y139D02*
X709Y139D01*
X737Y139D02*
X764Y139D01*
X681Y138D02*
X709Y138D01*
X736Y138D02*
X764Y138D01*
X681Y137D02*
X710Y137D01*
X736Y137D02*
X764Y137D01*
X681Y136D02*
X710Y136D01*
X735Y136D02*
X764Y136D01*
X681Y135D02*
X711Y135D01*
X734Y135D02*
X764Y135D01*
X681Y134D02*
X712Y134D01*
X733Y134D02*
X764Y134D01*
X681Y133D02*
X714Y133D01*
X732Y133D02*
X764Y133D01*
X681Y132D02*
X715Y132D01*
X731Y132D02*
X764Y132D01*
X681Y131D02*
X717Y131D01*
X728Y131D02*
X764Y131D01*
X681Y130D02*
X764Y130D01*
X681Y129D02*
X764Y129D01*
X681Y128D02*
X764Y128D01*
X681Y127D02*
X764Y127D01*
X681Y126D02*
X764Y126D01*
X681Y125D02*
X764Y125D01*
X681Y124D02*
X764Y124D01*
X681Y123D02*
X764Y123D01*
X681Y122D02*
X764Y122D01*
X681Y121D02*
X764Y121D01*
X681Y120D02*
X764Y120D01*
X681Y119D02*
X764Y119D01*
X681Y118D02*
X764Y118D01*
X681Y117D02*
X764Y117D01*
X681Y116D02*
X764Y116D01*
X681Y115D02*
X764Y115D01*
X681Y114D02*
X764Y114D01*
X681Y113D02*
X764Y113D01*
X681Y112D02*
X764Y112D01*
X681Y111D02*
X764Y111D01*
X681Y110D02*
X764Y110D01*
X681Y109D02*
X764Y109D01*
X681Y108D02*
X764Y108D01*
X681Y107D02*
X764Y107D01*
X681Y106D02*
X764Y106D01*
X681Y105D02*
X764Y105D01*
X681Y104D02*
X764Y104D01*
D02*
G04 End of Mask1*
M02*