G04 MADE WITH FRITZING*
G04 WWW.FRITZING.ORG*
G04 DOUBLE SIDED*
G04 HOLES PLATED*
G04 CONTOUR ON CENTER OF CONTOUR VECTOR*
%ASAXBY*%
%FSLAX23Y23*%
%MOIN*%
%OFA0B0*%
%SFA1.0B1.0*%
%ADD10C,0.059200*%
%ADD11C,0.060000*%
%ADD12C,0.078000*%
%ADD13C,0.072917*%
%ADD14C,0.092000*%
%ADD15C,0.039370*%
%ADD16R,0.059200X0.059200*%
%ADD17R,0.060028X0.060014*%
%ADD18R,0.060028X0.060000*%
%ADD19R,0.078000X0.078000*%
%ADD20R,0.092000X0.092000*%
%ADD21C,0.024000*%
%LNCOPPER0*%
G90*
G70*
G54D10*
X1510Y3056D03*
X1274Y3056D03*
X1353Y3056D03*
X1432Y3056D03*
G54D11*
X2875Y3449D03*
X2974Y3449D03*
X3074Y3449D03*
X3174Y3449D03*
X3273Y3449D03*
X3373Y3449D03*
X3472Y3449D03*
X3572Y3449D03*
X3671Y3449D03*
X3771Y3449D03*
X3871Y3449D03*
X3970Y3449D03*
X4070Y3449D03*
X4169Y3449D03*
X4269Y3449D03*
X4269Y2556D03*
X4169Y2556D03*
X4070Y2556D03*
X3970Y2556D03*
X3871Y2556D03*
X3771Y2556D03*
X3671Y2556D03*
X3572Y2556D03*
X3472Y2556D03*
X3373Y2556D03*
X3273Y2556D03*
X3174Y2556D03*
X3074Y2556D03*
X2974Y2556D03*
X2875Y2556D03*
G54D12*
X2174Y3056D03*
X2074Y3056D03*
X1974Y3056D03*
X2274Y2656D03*
X2174Y2656D03*
X2074Y2656D03*
X1974Y2656D03*
G54D13*
X1474Y356D03*
X3074Y356D03*
X1374Y356D03*
X1274Y356D03*
X1174Y356D03*
X1074Y356D03*
X774Y1756D03*
X974Y356D03*
X874Y356D03*
X3034Y2256D03*
X2474Y356D03*
X2374Y356D03*
X2274Y356D03*
X2174Y356D03*
X774Y956D03*
X2074Y356D03*
X1974Y356D03*
X1874Y356D03*
X1774Y356D03*
X2274Y2256D03*
X774Y2156D03*
X774Y1356D03*
X774Y556D03*
X3434Y2256D03*
X2674Y356D03*
X2674Y2256D03*
X774Y1956D03*
X774Y1556D03*
X774Y1156D03*
X1074Y2256D03*
X774Y756D03*
X1174Y2256D03*
X1274Y2256D03*
X1374Y2256D03*
X1474Y2256D03*
X1574Y2256D03*
X1674Y2256D03*
X1774Y2256D03*
X3634Y2256D03*
X3234Y2256D03*
X2834Y2256D03*
X3274Y356D03*
X2874Y356D03*
X2074Y2256D03*
X2474Y2256D03*
X774Y2256D03*
X774Y2056D03*
X774Y1856D03*
X774Y1656D03*
X774Y1456D03*
X774Y1256D03*
X774Y1056D03*
X774Y856D03*
X774Y656D03*
X3734Y2256D03*
X3534Y2256D03*
X3334Y2256D03*
X3134Y2256D03*
X2934Y2256D03*
X3374Y356D03*
X3174Y356D03*
X2974Y356D03*
X2774Y356D03*
X1974Y2256D03*
X2174Y2256D03*
X2374Y2256D03*
X2574Y2256D03*
X674Y2256D03*
X674Y2156D03*
X674Y2056D03*
X674Y1956D03*
X674Y1856D03*
X674Y1756D03*
X674Y1656D03*
X674Y1556D03*
X674Y1456D03*
X674Y1356D03*
X674Y1256D03*
X674Y1156D03*
X674Y1056D03*
X674Y956D03*
X674Y856D03*
X674Y756D03*
X674Y656D03*
X674Y556D03*
X1574Y356D03*
X1474Y356D03*
X3074Y356D03*
X1374Y356D03*
X1274Y356D03*
X1174Y356D03*
X1074Y356D03*
X774Y1756D03*
X974Y356D03*
X874Y356D03*
X3034Y2256D03*
X2474Y356D03*
X2374Y356D03*
X2274Y356D03*
X2174Y356D03*
X774Y956D03*
X2074Y356D03*
X1974Y356D03*
X1874Y356D03*
X1774Y356D03*
X2274Y2256D03*
X774Y2156D03*
X774Y1356D03*
X774Y556D03*
X3434Y2256D03*
X2674Y356D03*
X2674Y2256D03*
X774Y1956D03*
X774Y1556D03*
X774Y1156D03*
X1074Y2256D03*
X774Y756D03*
X1174Y2256D03*
X1274Y2256D03*
X1374Y2256D03*
X1474Y2256D03*
X1574Y2256D03*
X1674Y2256D03*
X1774Y2256D03*
X3634Y2256D03*
X3234Y2256D03*
X2834Y2256D03*
X3274Y356D03*
X2874Y356D03*
X2074Y2256D03*
X2474Y2256D03*
X774Y2256D03*
X774Y2056D03*
X774Y1856D03*
X774Y1656D03*
X774Y1456D03*
X774Y1256D03*
X774Y1056D03*
X774Y856D03*
X774Y656D03*
X3734Y2256D03*
X3534Y2256D03*
X3334Y2256D03*
X3134Y2256D03*
X2934Y2256D03*
X3374Y356D03*
X3174Y356D03*
X2974Y356D03*
X2774Y356D03*
X1974Y2256D03*
X2174Y2256D03*
X2374Y2256D03*
X2574Y2256D03*
X674Y2256D03*
X674Y2156D03*
X674Y2056D03*
X674Y1956D03*
X674Y1856D03*
X674Y1756D03*
X674Y1656D03*
X674Y1556D03*
X674Y1456D03*
X674Y1356D03*
X674Y1256D03*
X674Y1156D03*
X674Y1056D03*
X674Y956D03*
X674Y856D03*
X674Y756D03*
X674Y656D03*
X674Y556D03*
X1574Y356D03*
G54D12*
X674Y3156D03*
X674Y3056D03*
X674Y2956D03*
X674Y2856D03*
X674Y2756D03*
X674Y2656D03*
X674Y2556D03*
X674Y3156D03*
X674Y3056D03*
X674Y2956D03*
X674Y2856D03*
X674Y2756D03*
X674Y2656D03*
X674Y2556D03*
G54D14*
X474Y156D03*
X774Y156D03*
X474Y156D03*
X774Y156D03*
G54D12*
X2174Y3456D03*
X2074Y3456D03*
X1974Y3456D03*
X2174Y3456D03*
X2074Y3456D03*
X1974Y3456D03*
G54D15*
X1074Y2556D03*
G54D16*
X1510Y3056D03*
G54D17*
X2974Y3449D03*
X3373Y3449D03*
G54D18*
X3671Y2556D03*
X2974Y2556D03*
G54D19*
X674Y3156D03*
X674Y3156D03*
G54D20*
X474Y156D03*
X474Y156D03*
G54D19*
X2174Y3456D03*
X2174Y3456D03*
G54D21*
X474Y2252D02*
X655Y2255D01*
D02*
X474Y182D02*
X474Y2252D01*
D02*
X2170Y156D02*
X2360Y342D01*
D02*
X800Y156D02*
X2170Y156D01*
D02*
X691Y2747D02*
X1067Y2559D01*
D02*
X1074Y2652D02*
X1274Y2652D01*
D02*
X1274Y2652D02*
X1274Y2275D01*
D02*
X691Y2847D02*
X1074Y2652D01*
D02*
X1258Y3056D02*
X693Y3056D01*
D02*
X1343Y3068D02*
X1274Y3156D01*
D02*
X1274Y3156D02*
X693Y3156D01*
D02*
X978Y2452D02*
X1066Y2273D01*
D02*
X474Y2452D02*
X978Y2452D01*
D02*
X1170Y3356D02*
X474Y3356D01*
D02*
X474Y3356D02*
X474Y2452D01*
D02*
X1274Y3356D02*
X1170Y3356D01*
D02*
X1424Y3070D02*
X1274Y3356D01*
D02*
X2074Y3037D02*
X2074Y2852D01*
D02*
X1474Y2856D02*
X1274Y2852D01*
D02*
X2074Y2852D02*
X1474Y2856D01*
D02*
X1274Y2852D02*
X1274Y2956D01*
D02*
X1274Y2956D02*
X1274Y3040D01*
D02*
X1874Y2956D02*
X1961Y3042D01*
D02*
X1378Y2956D02*
X1874Y2956D01*
D02*
X1357Y3040D02*
X1378Y2956D01*
D02*
X1974Y3256D02*
X1974Y3075D01*
D02*
X2066Y3439D02*
X1974Y3256D01*
D02*
X2574Y3556D02*
X2574Y2275D01*
D02*
X1988Y3469D02*
X2074Y3556D01*
D02*
X2074Y3556D02*
X2574Y3556D01*
D02*
X2074Y3256D02*
X2074Y3075D01*
D02*
X2166Y3439D02*
X2074Y3256D01*
D02*
X2174Y2356D02*
X2261Y2269D01*
D02*
X1974Y2637D02*
X1974Y2356D01*
D02*
X1974Y2356D02*
X2174Y2356D01*
D02*
X2174Y2456D02*
X2361Y2269D01*
D02*
X2174Y2637D02*
X2174Y2456D01*
D02*
X2274Y2637D02*
X2274Y2456D01*
D02*
X2274Y2456D02*
X2461Y2269D01*
D02*
X2570Y156D02*
X4778Y156D01*
D02*
X4778Y156D02*
X4778Y3052D01*
D02*
X4778Y3052D02*
X2193Y3056D01*
D02*
X2482Y338D02*
X2570Y156D01*
D02*
X1974Y2156D02*
X4574Y2156D01*
D02*
X4574Y2156D02*
X4574Y2756D01*
D02*
X3274Y2756D02*
X3084Y2565D01*
D02*
X4574Y2756D02*
X3274Y2756D01*
D02*
X1974Y2236D02*
X1974Y2156D01*
D02*
X3374Y2456D02*
X3429Y2274D01*
D02*
X3672Y2542D02*
X3674Y2456D01*
D02*
X3674Y2456D02*
X3374Y2456D01*
G04 End of Copper0*
M02*