; NON-PLATED HOLES START AT T1
; THROUGH (PLATED) HOLES START AT T100
M48
INCH
T1C0.236220
T100C0.038194
T101C0.032000
T102C0.038000
T103C0.028000
T104C0.052000
T105C0.015748
%
T1
X001740Y001555
X049740Y001555
X048740Y033555
X001740Y032555
T100
X007740Y010555
X006740Y019555
X007740Y016555
X019740Y022555
X028740Y003555
X007740Y022555
X007740Y014555
X007740Y020555
X007740Y005555
X007740Y011555
X007740Y013555
X006740Y021555
X032740Y003555
X010740Y022555
X009740Y003555
X020740Y022555
X024740Y003555
X006740Y010555
X012740Y022555
X027740Y003555
X007740Y006555
X006740Y008555
X007740Y009555
X020740Y003555
X017740Y022555
X006740Y005555
X030340Y022555
X011740Y022555
X007740Y015555
X015740Y003555
X007740Y012555
X023740Y003555
X016740Y022555
X006740Y013555
X026740Y022555
X006740Y012555
X007740Y021555
X025740Y022555
X033340Y022555
X024740Y022555
X007740Y008555
X013740Y003555
X015740Y022555
X011740Y003555
X006740Y020555
X029740Y003555
X013740Y022555
X006740Y015555
X033740Y003555
X022740Y003555
X035340Y022555
X028340Y022555
X007740Y018555
X006740Y011555
X007740Y019555
X006740Y022555
X032340Y022555
X007740Y017555
X030740Y003555
X014740Y003555
X006740Y016555
X007740Y007555
X023740Y022555
X021740Y022555
X034340Y022555
X010740Y003555
X006740Y018555
X022740Y022555
X006740Y017555
X006740Y014555
X006740Y007555
X019740Y003555
X029340Y022555
X026740Y003555
X018740Y003555
X021740Y003555
X031340Y022555
X017740Y003555
X006740Y006555
X012740Y003555
X006740Y009555
X036340Y022555
X037340Y022555
X008740Y003555
X031740Y003555
X014740Y022555
T101
X014315Y030555
X015102Y030555
X013528Y030555
X012740Y030555
T102
X006740Y029555
X006740Y027555
X019740Y026555
X006740Y030555
X020740Y034555
X019740Y030555
X006740Y031555
X006740Y026555
X006740Y025555
X006740Y028555
X020740Y026555
X019740Y034555
X021740Y030555
X021740Y026555
X020740Y030555
X021740Y034555
X022740Y026555
T103
X036714Y034493
X032732Y025555
X036714Y025555
X038706Y025555
X041693Y025555
X031736Y034493
X029744Y025555
X033727Y025555
X040697Y025555
X040697Y034493
X034723Y025555
X028749Y025555
X041693Y034493
X031736Y025555
X037710Y025555
X032732Y034493
X029744Y034493
X035719Y025555
X034723Y034493
X030740Y025555
X042689Y025555
X039701Y034493
X030740Y034493
X038706Y034493
X042689Y034493
X037710Y034493
X039701Y025555
X033727Y034493
X035719Y034493
X028749Y034493
T104
X007740Y001555
X004740Y001555
T105
X010740Y025555
T00
M30
